<?xml version="1.0" encoding="utf-8"?>
<!-- Generator: Adobe Illustrator 24.2.3, SVG Export Plug-In . SVG Version: 6.00 Build 0)  -->
<svg version="1.1" id="Layer_1" xmlns="http://www.w3.org/2000/svg" xmlns:xlink="http://www.w3.org/1999/xlink" x="0px" y="0px"
	 viewBox="0 0 1920 1080" style="enable-background:new 0 0 1920 1080;" xml:space="preserve">
<g>
	<path d="M580.9,631.5c-7.7,0.1-15.4-1.4-22.6-4.2c-21.6-8.5-35.7-29.4-35.4-52.6c-0.1-7.7,1.4-15.3,4.4-22.5
		c2.8-6.8,7-12.9,12.3-18.1c5.3-5.2,11.6-9.3,18.4-12c7.3-2.9,15.1-4.4,22.9-4.3c6.8,0,13.6,1,20.1,3.1c5.9,1.9,11.5,4.8,16.4,8.7
		l-6.3,10.2c-7.8-6.1-17.3-9.1-28.4-9.1c-8.1-0.2-16.1,1.8-23.1,5.8c-6.5,3.7-11.9,9.2-15.5,15.8c-3.7,6.8-5.6,14.5-5.5,22.3
		c-0.1,7.8,1.8,15.6,5.6,22.4c3.7,6.6,9.1,12,15.7,15.7c7,3.9,15,5.9,23,5.7c5.2,0,10.4-0.8,15.4-2.3c4.6-1.5,9-3.7,12.8-6.7
		l6.4,10.2c-4.9,3.8-10.5,6.7-16.4,8.6C594.5,630.5,587.7,631.6,580.9,631.5z"/>
	<path d="M695.2,631.5c-9.6,0.1-18.9-2.4-27.1-7.4c-8-4.9-14.6-11.9-19.1-20.2c-4.7-8.6-7-18.4-7-29.4c0-10.9,2.3-20.6,6.9-29.1
		c4.4-8.3,11-15.3,19-20.2c8.2-5,17.7-7.6,27.3-7.4c9.2-0.1,18.3,2.2,26.3,6.8c7.7,4.4,14,10.9,18,18.8v-22.3h15.3v107h-15.3v-22.6
		c-4.4,7.9-10.8,14.4-18.5,19C713.2,629.3,704.3,631.6,695.2,631.5z M699,618.3c7.5,0.1,14.8-1.8,21.3-5.6
		c6.2-3.7,11.2-9.1,14.6-15.5c7.1-14.2,7.1-30.9,0-45.1c-3.4-6.4-8.4-11.7-14.6-15.4c-13.2-7.5-29.4-7.5-42.6,0
		c-6.2,3.7-11.3,9-14.7,15.4c-7.1,14.2-7.1,30.9,0,45.1c3.4,6.4,8.4,11.7,14.6,15.5C684.1,616.5,691.5,618.4,699,618.3z"/>
	<path d="M799.7,628.2v-107H815V537c3-5.9,7.6-10.8,13.2-14.3c5.7-3.3,12.2-5,18.8-4.9c3.2,0,6.4,0.3,9.6,1c2.9,0.6,5.7,1.5,8.4,2.7
		l-6.3,12.8c-2.3-1.1-4.7-1.9-7.2-2.4c-2.5-0.5-5.1-0.8-7.7-0.8c-4.9,0-9.7,1.3-14,3.8c-4.3,2.4-7.9,5.7-10.7,9.8
		c-2.7,3.7-4.1,8.2-4.1,12.8v70.6H799.7z"/>
	<path d="M942.9,631.5c-10.5,0.2-20.9-2.3-30.2-7.2c-8.8-4.6-16.1-11.6-21.3-20.1c-5.2-8.6-7.8-18.4-7.8-29.6
		c0-11.2,2.6-21,7.8-29.6c5.2-8.5,12.5-15.4,21.3-20c19-9.6,41.3-9.6,60.3,0c8.8,4.6,16.1,11.5,21.3,20c5.2,8.5,7.8,18.4,7.8,29.6
		c0,11.2-2.6,21.1-7.8,29.6c-5.1,8.5-12.5,15.4-21.3,20.1C963.7,629.2,953.4,631.7,942.9,631.5z M942.9,618
		c7.8,0.1,15.5-1.8,22.4-5.5c6.5-3.6,11.8-8.9,15.5-15.3c7.5-14,7.5-30.8,0-44.8c-3.7-6.4-9-11.7-15.5-15.3c-14-7.4-30.7-7.4-44.7,0
		c-6.5,3.6-11.8,8.9-15.5,15.3c-3.8,6.8-5.8,14.5-5.6,22.3c-0.1,7.9,1.8,15.6,5.6,22.5c3.7,6.4,9,11.8,15.5,15.4
		C927.3,616.2,935,618.1,942.9,618L942.9,618z"/>
	<path d="M1038.5,628.2V448.5h15.3v179.7H1038.5z"/>
	<path d="M1106.3,499.8c-1.8,0-3.5-0.4-5-1.4c-1.5-0.9-2.7-2.2-3.6-3.7c-0.9-1.5-1.4-3.2-1.4-5c0-1.8,0.4-3.5,1.4-5
		c0.9-1.5,2.1-2.7,3.6-3.6c1.5-0.9,3.2-1.4,5-1.4c1.8,0,3.5,0.4,5.1,1.4c1.5,0.9,2.7,2.1,3.6,3.5c0.9,1.5,1.4,3.2,1.4,4.9
		c0,1.8-0.4,3.6-1.4,5.1c-0.9,1.5-2.1,2.8-3.6,3.7C1109.8,499.3,1108.1,499.8,1106.3,499.8z M1098.7,628.2v-107h15.3v107H1098.7z"/>
	<path d="M1159.1,628.2v-107h15.3v14.6c2.9-5,7.4-9.3,13.6-12.8s13.6-5.2,22.5-5.2c8.3,0,15.4,1.7,21.4,5.1
		c6,3.4,10.8,8.6,13.8,14.9c3.2,6.5,4.8,14.4,4.8,23.6v66.8h-15.2v-63.9c0-11.1-2.6-19.5-7.7-25.3c-5.2-5.8-12.4-8.7-21.8-8.7
		c-6.6,0-12.1,1.3-16.8,3.9c-4.4,2.4-8.1,6-10.7,10.3c-2.5,4.2-3.8,9.1-3.8,14v69.7L1159.1,628.2z"/>
	<path d="M1343.6,631.5c-11.2,0-21.2-2.5-30-7.4c-8.6-4.7-15.8-11.7-20.7-20.2c-5.1-8.7-7.7-18.7-7.5-28.8
		c-0.1-7.7,1.4-15.3,4.3-22.4c2.8-6.8,6.9-13,12.1-18.2c5.1-5.2,11.3-9.4,18-12.2c6.9-2.9,14.3-4.4,21.8-4.4c10.6,0,20,2.3,28.3,6.9
		c8.1,4.5,14.9,11.2,19.6,19.2c4.8,8.1,7.4,17.6,7.7,28.2c0,0.8,0,1.5,0,2c-0.1,0.7-0.1,1.3-0.3,1.9h-96.3
		c-0.2,7.8,1.8,15.4,5.6,22.2c3.7,6.4,9.1,11.6,15.5,15.1c13.9,7.2,30.4,7.3,44.4,0.4c6.5-3.4,12.1-8.5,16.2-14.6l11.3,6.1
		c-5,8.2-12.2,14.9-20.7,19.3C1363.8,629.3,1353.8,631.7,1343.6,631.5z M1301.3,564.7h80.6c-0.8-6.4-3.2-12.5-7-17.7
		c-3.7-5.1-8.6-9.2-14.3-12.1c-5.8-2.9-12.3-4.5-18.9-4.4c-6.7-0.1-13.2,1.4-19.2,4.3C1310.8,540.5,1302.8,551.8,1301.3,564.7z"/>
</g>
</svg>
