<svg xmlns="http://www.w3.org/2000/svg" viewBox="0 0 1920 1080"><defs><style>.cls-1{fill:#cc1d02;}</style></defs><title>Asset 5</title><g id="Layer_2" data-name="Layer 2"><g id="Layer_1-2" data-name="Layer 1"><rect class="cls-1" width="1920" height="1080"/><path d="M580.88,631.54a60.08,60.08,0,0,1-22.57-4.23,55.86,55.86,0,0,1-35.43-52.62,56.8,56.8,0,0,1,4.39-22.46,55.25,55.25,0,0,1,12.28-18.08,56.36,56.36,0,0,1,18.44-12,60.24,60.24,0,0,1,22.89-4.28A63.67,63.67,0,0,1,600.94,521a51.91,51.91,0,0,1,16.41,8.67l-6.27,10.25q-11.7-9.1-28.43-9.1a45.28,45.28,0,0,0-23.14,5.8A40.91,40.91,0,0,0,544,552.38a45.24,45.24,0,0,0-5.54,22.31,44.74,44.74,0,0,0,5.64,22.42,41.27,41.27,0,0,0,15.68,15.73,45.43,45.43,0,0,0,23,5.74,49.65,49.65,0,0,0,15.41-2.35,40.22,40.22,0,0,0,12.8-6.74l6.38,10.24a55.39,55.39,0,0,1-16.41,8.62A62,62,0,0,1,580.88,631.54Z"/><path d="M695.2,631.54a51,51,0,0,1-27.12-7.37A53.16,53.16,0,0,1,649,604q-7.05-12.86-7.05-29.36,0-16.3,6.94-29.1a52.89,52.89,0,0,1,19-20.22,51.11,51.11,0,0,1,27.33-7.42,51.83,51.83,0,0,1,26.33,6.79,45,45,0,0,1,18,18.81V521.19h15.26v107H739.51V605.63a50.94,50.94,0,0,1-18.5,19A49.53,49.53,0,0,1,695.2,631.54ZM699,618.27a40.29,40.29,0,0,0,21.27-5.59,39.81,39.81,0,0,0,14.58-15.47,50.56,50.56,0,0,0,.05-45.09,39.34,39.34,0,0,0-14.58-15.41,43.45,43.45,0,0,0-42.64,0A39.75,39.75,0,0,0,663,552.12a50.43,50.43,0,0,0,0,45.09,39.64,39.64,0,0,0,14.63,15.47A40.55,40.55,0,0,0,699,618.27Z"/><path d="M799.7,628.2v-107H815V537a36.37,36.37,0,0,1,13.22-14.26,35.71,35.71,0,0,1,18.75-4.86,45.7,45.7,0,0,1,9.56,1,39.11,39.11,0,0,1,8.42,2.72l-6.27,12.85a29.65,29.65,0,0,0-7.16-2.4,37.57,37.57,0,0,0-7.68-.84,27.88,27.88,0,0,0-14,3.76,32.26,32.26,0,0,0-10.71,9.77A22.25,22.25,0,0,0,815,557.56V628.2Z"/><path d="M942.86,631.54a62.66,62.66,0,0,1-30.15-7.21,54.78,54.78,0,0,1-21.26-20.06q-7.85-12.85-7.84-29.58t7.84-29.62a54.88,54.88,0,0,1,21.26-20,66.64,66.64,0,0,1,60.3,0,55,55,0,0,1,21.27,20q7.83,12.79,7.83,29.62t-7.83,29.58A54.88,54.88,0,0,1,973,624.33,62.66,62.66,0,0,1,942.86,631.54Zm0-13.58a44.73,44.73,0,0,0,22.36-5.54,40.55,40.55,0,0,0,15.47-15.31,47.36,47.36,0,0,0,0-44.83A40.55,40.55,0,0,0,965.22,537a47.89,47.89,0,0,0-44.72,0A40.55,40.55,0,0,0,905,552.28a43.8,43.8,0,0,0-5.64,22.31A44.32,44.32,0,0,0,905,597.06a40.4,40.4,0,0,0,15.47,15.36A44.75,44.75,0,0,0,942.86,618Z"/><path d="M1038.48,628.2V448.46h15.26V628.2Z"/><path d="M1106.3,499.77a9.4,9.4,0,0,1-5-1.36,10.35,10.35,0,0,1-3.6-3.66,9.62,9.62,0,0,1-1.36-5,9.38,9.38,0,0,1,1.36-5,10.43,10.43,0,0,1,3.6-3.6,9.4,9.4,0,0,1,5-1.36,9.58,9.58,0,0,1,5.07,1.36,10.63,10.63,0,0,1,3.6,3.55,9.1,9.1,0,0,1,1.36,4.91,9.83,9.83,0,0,1-1.36,5.12,10.35,10.35,0,0,1-3.6,3.66A9.58,9.58,0,0,1,1106.3,499.77Zm-7.63,128.43v-107h15.26v107Z"/><path d="M1159.07,628.2v-107h15.26v14.63q4.38-7.53,13.58-12.75t22.47-5.22q12.43,0,21.42,5.12a33.85,33.85,0,0,1,13.8,14.89q4.8,9.76,4.8,23.56V628.2h-15.25V564.35q0-16.62-7.74-25.34t-21.84-8.73q-9.83,0-16.77,3.92a28.07,28.07,0,0,0-10.71,10.35,27.09,27.09,0,0,0-3.76,14v69.7Z"/><path d="M1343.62,631.54q-16.83,0-30-7.42a54.45,54.45,0,0,1-20.74-20.22,55.7,55.7,0,0,1-7.53-28.79,57.64,57.64,0,0,1,4.34-22.41,56.85,56.85,0,0,1,12.07-18.24,56.05,56.05,0,0,1,18-12.22,54.82,54.82,0,0,1,21.85-4.39q15.87,0,28.26,6.94A52.2,52.2,0,0,1,1389.44,544q7.26,12.22,7.68,28.22c0,.83,0,1.51,0,2a18.83,18.83,0,0,1-.26,1.94h-96.35a43,43,0,0,0,5.64,22.15,40.36,40.36,0,0,0,15.52,15.1,49.35,49.35,0,0,0,44.41.42,44.29,44.29,0,0,0,16.15-14.58l11.28,6.06a52.48,52.48,0,0,1-20.74,19.33A61.57,61.57,0,0,1,1343.62,631.54Zm-42.33-66.88h80.57a37.94,37.94,0,0,0-7-17.71,40,40,0,0,0-14.26-12.07,41,41,0,0,0-18.87-4.39,42.38,42.38,0,0,0-19.22,4.34,38.23,38.23,0,0,0-21.22,29.83Z"/></g></g></svg>