<svg id="Layer_1" data-name="Layer 1" xmlns="http://www.w3.org/2000/svg" viewBox="0 0 1920 1080"><defs><style>.cls-1{fill:#fff;}</style></defs><g id="Shape_77" data-name="Shape 77"><path class="cls-1" d="M1229.19,500.42c2.07-14.15,4.07-27.33,6.25-40.48,1-6.07,2.3-12.08,3.55-18.1,3.85-18.63,7.84-37.23,11.6-55.88,2.8-13.88,5.22-27.84,8-41.72,1.24-6.16,2.81-12.61,11.15-12.18,15.08.78,29.9,2.58,40.4,15.39,1.27,1.56,2,3.58,3,5.39-1.92.89-4,1.51-5.71,2.72-4.27,3.07-10.87,5.66-12.06,9.75-4.72,16.12-7.62,32.77-11.42,49.17-.79,3.44-3.1,6.55-3.75,10-5.32,28.18-11,56.3-15.35,84.63-2.63,17.31-2.59,35-4.45,52.43-1.28,12-4.05,23.82-5.57,35.8-.75,5.88.08,11.95-.24,17.91-.39,7.25-.34,14.71-2.14,21.64-2,7.72-2.63,15.39-13.79,19.27-7.44,2.59-15.31,6.78-23.15,10.09-7.13,3-12.45,1-15.45-4.37a382.87,382.87,0,0,1-17.72-37c-4-9.54-6.86-19.59-9.88-29.52-1.16-3.81-.92-8.07-2.17-11.84-.82-2.47-3.17-4.42-4.83-6.61a46.4,46.4,0,0,0-2.79,6.67c-2.64,10.35-5.28,20.7-7.55,31.13-4.17,19.19-8.46,38.36-11.95,57.67-2.33,12.91-10.78,20.45-21.33,25.61-7.89,3.85-16.79,5.84-25.44,7.73-1.58.35-5.53-3.48-6-5.87-3.06-15.15-6-30.37-7.93-45.69-2.51-20.13-3.62-40.43-6.14-60.55-2.18-17.29-5.4-34.46-8.33-51.66s-5.92-34.5-9.23-51.68c-2.28-11.81-5.37-23.48-7.72-35.28-3.46-17.43-6.38-35-9.94-52.38-1.33-6.5-4.16-12.67-5.7-19.14-3.43-14.37,4.53-21.48,19-17.75a111.67,111.67,0,0,0,20.1,3.39c11.34.77,20.84,11.27,21.2,23.09.22,7.33,1.75,14.65,3.1,21.89,3.51,18.86,7.28,37.66,10.88,56.5,1.41,7.38,2.63,14.8,3.94,22.2,2.61,14.81,5.87,29.53,7.6,44.44,1.19,10.2.16,20.65.31,31,0,1.57,1.1,3.12,1.69,4.68,1.36-1.49,3.43-2.76,4-4.51,1.25-4.09,1.25-8.6,2.69-12.6,5.48-15.29,11.89-30.25,16.8-45.71,2.61-8.23,8.77-10.06,15.29-11.42,6.86-1.43,14-1.59,21-2.1s16.78,11.07,18.89,20.95c2,9.17,5.53,18,7.54,27.16,1.43,6.52,1.24,13.39,2.23,20,.33,2.19,2.1,4.17,3.21,6.24.85-1.95,2.16-3.83,2.47-5.87,2.1-13.84,3.69-27.78,6.07-41.58C1224.72,516,1227.23,508.75,1229.19,500.42Z"/><path class="cls-1" d="M856.86,657.09c17.26,15,34.38,29.13,51.82,42.88,9,7,18.63,13.16,27.67,20.1,5.1,3.92,5.16,12.33-.44,15.25-8,4.15-16.67,7-25.28,9.76A52.65,52.65,0,0,1,894,748a20.51,20.51,0,0,1-11.54-4.51c-8.44-6.85-16.38-14.34-24.33-21.77-6.1-5.7-11.87-11.74-17.87-17.55-10.15-9.84-20.51-19.46-30.49-29.46C798.68,663.59,788,652.12,777,641c-9.71-9.9-19.83-19.39-29.3-29.5-6.59-7.05-12-15.15-18.63-22.2-6.1-6.51-12.35-13.33-19.79-18-6.45-4.06-6.48,3.8-7,7.11-1.27,8.88-2.28,17.94-2,26.88.7,19.52,2.76,39,3.34,58.52.36,12-.78,24-1.67,36-.62,8.28-4.34,13.15-13.75,14.53-6.87,1-13,6.6-19.84,8.44-6.26,1.67-15.64,3.84-19.16.73-5.29-4.69-6.81-13.12-4.79-22,2.26-9.93,1.05-20.64,1.45-31,.37-9.54,1.1-19.08,1.28-28.63.22-12.29-.12-24.6.14-36.88.1-4.64,1.32-9.24,1.85-13.88,2-17.56,4.47-35.1,5.72-52.72.91-12.89-.33-25.92.36-38.83.57-10.56,2.72-21,3.89-31.58.84-7.67,1.17-15.39,1.82-23.09.58-6.91,1.68-13.8,1.85-20.72.31-12.4.76-24.86-.12-37.2-.71-10,7-19.18,20.19-21.58,14.68-2.66,29.34-7,44.08-7.34,14.91-.32,31,.77,44.57,6.14,12.94,5.1,24.3,15.72,28.44,30.92,2.66,9.78,7.47,19.65,7.22,29.37-.26,9.89-4.84,20-8.82,29.38-4.39,10.41-10.56,19.4-20.08,26.8-15.5,12.07-29.45,26.13-43.92,39.5-6.94,6.41-5.86,8.14,1.71,13.84,8.87,6.68,16.83,14.65,24.67,22.56,13,13.16,25.77,26.63,38.44,40.15,10.85,11.58,21.21,23.61,32.19,35,8.13,8.46,16.9,16.31,25.39,25.41M721.74,434.82c-3.21,22.79-6.54,45.57-9.47,68.4-.35,2.73,1.46,5.73,2.27,8.61,2-1.15,4.42-2,6-3.55,2.18-2.15,3.6-5,5.64-7.38,15.72-17.95,28.51-37,35.2-60.8,8.12-28.93-14.43-50.12-35.63-57-.82-.26-3.83,2.62-3.86,4.08C721.63,402.43,721.74,417.65,721.74,434.82Z"/><path class="cls-1" d="M464.35,540.13c1-15,1.76-29.62,2.19-44.22.25-8.46-.37-17,.14-25.38.85-14,3.59-27.94,3.15-41.83-.49-15.62,4.11-31.56-3-47-3.64-7.88,2.39-15.76,11.78-17.15,12.33-1.82,24.68-4.55,37.05-4.76,13-.22,26.57.32,39,3.75,13.17,3.63,24.27,12.73,33.79,22.74,6.86,7.22,13.81,14.85,18.56,23.49a149.09,149.09,0,0,1,13.55,33.72c4.14,15.89,7.72,32.2,8.84,48.51,1.09,15.95,2.89,32.23-1.29,48.25-2.84,10.84-3,22.75-7.68,32.65-7.34,15.61-16.79,30.37-26.54,44.67a179.12,179.12,0,0,1-24.25,28.54c-10.34,9.86-21.93,18.44-33.35,27.09-5.52,4.19-12.79,6.37-17.59,11.14-4.23,4.21-6.09,10.79-9,16.29-3.85,7.18-9.58,10-17.86,8.7-4-.65-8.32.55-12.5.57-3.62,0-9.56.77-10.45-.93a50.37,50.37,0,0,1-5.55-18.18c-.6-6,1.41-12.22,1.45-18.35.1-17.19,1.39-34.6-.85-51.52-2-14.91,0-29.52-.68-44.24-.56-12,.42-24,1.17-36.53M576,451.81c-4.85-10.83-8.92-22.11-14.76-32.39-7.56-13.31-20.42-21.75-32.43-30.66-2.4-1.78-7.08-2.9-9.38-1.72s-3.86,5.52-4.2,8.64c-.5,4.61.87,9.41.52,14.05-1.22,16.24-2.84,32.45-4.31,48.67-.6,6.72-1.39,13.44-1.74,20.17-.4,7.63-.55,15.29-.54,22.93,0,9.09.63,18.19.41,27.27-.28,11.91-1.28,23.8-1.66,35.71-.28,8.56-.05,17.14-.05,25.7,0,8.87-.22,17.74.05,26.6.39,12.81,1,25.61,1.83,38.4.15,2.39,1.52,4.71,2.32,7.07,1.59-1.2,3.28-2.28,4.73-3.62,1.27-1.17,2-3.22,3.44-3.85,11.06-4.91,18.06-14.44,26.1-22.72,16.8-17.3,25.8-39.2,32.79-61.46,4.33-13.8,4.73-29,5.62-43.64.61-10-.4-20.29-1.7-30.31C581.16,482.24,578.37,468,576,451.81Z"/><path class="cls-1" d="M908.27,346.21c7.72.16,14.94,1.22,22.18,1.37,11.27.24,21.36,3.12,27.91,12.75a65.24,65.24,0,0,1,8,17.17c5.57,17.94,10,36.25,16,54.07,4.41,13.21,10.31,25.94,15.82,38.77q7.38,17.18,15.37,34.08c6.79,14.48,13.61,29,20.87,43.2,3.59,7,9.15,13.18,12.15,20.42,5.29,12.78-.6,23.42-18.9,26.35a22.17,22.17,0,0,1-3.91,0c-6.68-.13-14.12,7.6-19.85-.73-3.75-5.46-5.44-12.29-8.51-18.28-6.2-12.12-12.7-24.1-19.1-36.12A101.56,101.56,0,0,0,970.48,529c-1.39-2-3.68-4.9-5.48-4.84-9.21.36-18.64.54-27.54,2.68-13.66,3.28-14.81,6.52-16.07,24-1.56,21.51-3.61,43-5.87,64.43-1.12,10.63-14.37,21.34-27.16,23.49-6,1-11.7,3.81-17.68,4.46-7.39.8-14.74-7.38-13.8-14.45,3.86-28.71,7.61-57.45,11.82-86.11,2.1-14.32,5-28.54,7.78-42.75,3.75-18.9,8.32-37.65,11.59-56.63,4.42-25.68,8-51.52,11.84-77.3.24-1.59.61-3.55-.06-4.84-4.64-8.93,1.08-11.93,8.42-14.9M945,503.36c12-2.16,12.52-3.42,8.15-15.48-2.19-6-3.13-12.52-5.19-18.61-1-2.9-3.28-5.35-5-8l-1.89,7.43c-1.49,5.86-2.8,11.78-4.52,17.58-1.52,5.12-3.5,10.1-5.27,15.14,3.78.52,7.57,1,11.34,1.61C943.14,503.1,943.55,503.88,945,503.36Z"/><path class="cls-1" d="M1419.45,491.05c9.47,15.75,19.88,29.9,28.08,45.22A83.91,83.91,0,0,1,1456.7,567c1.56,16-2,30.58-16,42-6.32,5.13-10.39,12.28-19.43,14.54-11.79,2.94-23,10.35-34.71,10.87-19.38.87-39.47-1.13-55.61-14-9.73-7.76-15.53-18.8-17.71-31.24-1-5.75.42-10.66,7.86-9.4,11.66,2,23.57,3.4,34.73,7,4.6,1.5,8,7.83,11.09,12.52,4.73,7.2,11.65,10.69,19.25,8.81,8.41-2.08,15.69-6.06,20.38-15.47,8.8-17.64,1.47-32.37-6.52-46.32-14.92-26.07-32.37-50.69-47.11-76.84C1344,453.58,1335,436.58,1331.7,419c-5-26.35,2.67-51.42,25.64-67.65,9.13-6.44,22.11-7.44,33.34-10.89,2.63-.81,5.34-1.34,7.92-2.25,15.15-5.39,37.08,9.36,44.53,18.13,1.62,1.91,3.66,3.47,5.28,5.39s4.43,5.15,4,5.76c-1.78,2.38-4.88,5.76-7.06,5.48-7.37-1-15.49-1.82-21.6-5.54-11.22-6.83-19-5.6-23.7,6.95-7.57,20-15.13,40.51-10.74,62,2.15,10.55,9.8,20,15.37,29.79C1409.28,474.28,1414.49,482,1419.45,491.05Z"/></g></svg>