<svg xmlns="http://www.w3.org/2000/svg" viewBox="0 0 1918 1080"><defs><style>.cls-1{fill:#1ce8ff;}</style></defs><title>Asset 8</title><g id="Layer_2" data-name="Layer 2"><g id="Layer_1-2" data-name="Layer 1"><rect class="cls-1" width="1918" height="1080"/><g id="Shape_31" data-name="Shape 31"><path d="M1108.48,454.93l-1.9-.85a1.23,1.23,0,0,1,2.11.59Z"/><path d="M693.08,609a2.19,2.19,0,0,1-1.65-1.12,1.82,1.82,0,0,1,2.6.75.75.75,0,0,1-.94.26Z"/><path d="M975.19,547.84a7,7,0,0,1,4.54.69,2,2,0,0,1,.9,1.06A5.72,5.72,0,0,1,975.19,547.84Z"/><path d="M745.43,469.58a1.21,1.21,0,0,1,2-.18,2.24,2.24,0,0,1-1.66.26Z"/><path d="M832.37,403.09c.65-.34,1.3.86.68,1.23a1.47,1.47,0,0,1-.89-1.29Z"/><path d="M1375.47,654.29a2.17,2.17,0,0,1,1.65.25,1.19,1.19,0,0,1-2-.19Z"/><path d="M861,513.08l-.93-.31c.08-.65,1.36-.34,1.13.27Z"/><path d="M986.92,643l-1-.35a1.21,1.21,0,0,1,.89-.46c.34,0,.51.63.18.72Z"/><path d="M1366.8,457a1.88,1.88,0,0,1,1.57,1,1.05,1.05,0,0,1-1.42.34,1,1,0,0,1-.29-1.42Z"/><path d="M1024,245.11c-.64.11-.83-1-.32-1.36a1.34,1.34,0,0,1,.28,1.34Z"/><path d="M718.74,749.89a.84.84,0,0,1-1.33,0,.84.84,0,0,1,1.33,0Z"/><path d="M1197.53,639.65c.29,0,.3.55,0,.57s-.28-.56,0-.57Z"/><path d="M889,513.71c.29,0,.3.54,0,.57s-.27-.56,0-.57Z"/><path d="M875.67,511.71c.28,0,.29.55,0,.57s-.28-.56,0-.57Z"/><path d="M706.8,505.34c0-.29.54-.3.57,0s-.56.28-.57,0Z"/><path d="M896.71,271c-.23-.25.23-.69.47-.45s-.2.7-.45.47Z"/><path d="M1347.47,326.45c.28,0,.29.55,0,.57s-.28-.56,0-.57Z"/><path d="M896.6,271.16c-.23-.23-.67.21-.44.44S896.83,271.39,896.6,271.16Z"/><path d="M1024,245.15c.25-.23.69.23.45.47s-.7-.2-.47-.45Z"/><path d="M981.09,550.43l-.54-.86.85.52Z"/><path d="M677.08,378.43c.29,0,.3.55,0,.57s-.27-.56,0-.57Z"/><path d="M849.4,551.63c-.12-.55,0-1.4.56-1.31a1,1,0,0,1-.57,1.41Z"/><path d="M745.06,770.93c.28,0,.29.55,0,.57s-.28-.56,0-.57Z"/><path d="M1021.33,629.29c0-.29.55-.3.57,0s-.56.27-.57,0Z"/><path d="M850.06,550.25c-.23-.25.24-.7.48-.46s-.21.71-.46.48Z"/><path d="M1124.52,472.52a48,48,0,0,0-6.26-8.46c-.62-.67-1.29-1.68-.72-2.38a46.88,46.88,0,0,1,8.83,10.76,1.13,1.13,0,0,1,.22.65c0,.48-.69.7-1.13.5A2.34,2.34,0,0,1,1124.52,472.52Z"/><path d="M1002.13,586.59c-3.87-4.27-3.35-10.87-5.6-16.17s-7.1-9-9.34-14.23a32.2,32.2,0,0,1,11,15.57c1.11,3.46,1.64,7.13,3.16,10.44s4.18,6.45,4.92,10.15c.61,3-.14,6.19-.25,9.3s.64,6.61,3.27,8.27c3.82,2.42,8.74-.44,13.25-.32-4.63,2.26-10.48,4.43-14.57,1.3-3.43-2.63-3.69-7.63-3.44-11.94S1005,589.79,1002.13,586.59Z"/><path d="M1097.51,602.72c.4,1.27,1.22,2.46,1.16,3.79-.07,1.69-1.49,3-2.82,4a72.77,72.77,0,0,1-31.94,13.86,63.16,63.16,0,0,0,10.62,5.33c7.36,2.65,15.36,2.77,23.18,2.85,7,.08,14.78-.12,19.9-4.91,4.1-3.82,5.47-9.66,6.65-15.14q2.19-10.18,4.37-20.37a9.55,9.55,0,0,0,.32-3.48c-.48-3.16-3.77-5-6.67-6.32l-3-1.41-11.81-5.44a14.81,14.81,0,0,0-4.62-1.54,14.27,14.27,0,0,0-4.11.34,291.48,291.48,0,0,0-46.55,12.58c-4.24,1.53-8.91,3.61-10.44,7.85a123.53,123.53,0,0,1-7.5,16.78c-1,1.84-2.13,3.75-4,4.69s-4.64.32-5.24-1.68c-.48-1.63.61-3.28,1.64-4.64l-4-.46c2.69.3,4.59-2.48,6-4.8A57.94,57.94,0,0,1,1047,585.76c-1.82-1.16-4.1.31-5.91,1.49-8.12,5.26-19,4.77-27.78.6a21.16,21.16,0,0,1-9-7.27c-3.21-5-3-11.41-2.75-17.36l1.84-38c0-1.23,1.16-2.92,2-2l-1,15.87c-.64,10-1.28,20-1,30.07.09,3.26.29,6.63,1.76,9.53,1.75,3.48,5.13,5.89,8.67,7.5a32.71,32.71,0,0,0,34.66-5.45c4.07-3.7,7.32-8.55,12.33-10.84a24.82,24.82,0,0,1,6.91-1.76,83.46,83.46,0,0,1,61.77,16.38c1.59,1.23,3.32,3.1,2.59,5a90.14,90.14,0,0,0-4.7,16.82c-.9,5.12-1.38,10.37-3.17,15.26s-5.18,9.51-10.07,11.26a25.32,25.32,0,0,1-7,1.12c-13.58.87-28.11,1.53-39.8-5.45-2.65-1.58-5.12-3.54-8-4.54-2.73-.93-5.71-1-8.41-2-3.27-1.26-5.81-3.87-8.23-6.4-.68-.71-1.41-1.73-.91-2.58s1.65-.73,2.54-.47c6.77,2,11.49,9.32,18.55,9.78a18.62,18.62,0,0,0,6.62-1.12,96.32,96.32,0,0,0,18.49-7.89c-3.7.4-7.65.76-11-.93s-5.4-6.3-3.17-9.27c1.53-2,4.31-2.52,6.76-3.23s5.15-2.26,5.29-4.8c-4.33,2-9.15,2.72-13.89,3.38l-30,4.16c15-6.58,33.4-2.85,47.59-11,1.27-.73,2.62-1.59,4.08-1.43,2.4.26,3.65,3.06,3.72,5.47s-.56,4.89.18,7.19m-1.62,2.71a.75.75,0,0,0-.34.38c-.55,1.06-1.11,2.11-1.66,3.16a2.75,2.75,0,0,0,2.7-2.77c0-.4-.31-.92-.7-.77m-41.24,15.41a100,100,0,0,0-8.42-5.53c-.56-.33-1.45-.55-1.69.05a33.94,33.94,0,0,0,7.21,5,3.39,3.39,0,0,0,2.9.47m-6.45-34.05c11.7-5.26,24.23-8.4,36.68-11.52a62.28,62.28,0,0,1,11.7-2.16c1.1-.06,2.42-.19,2.94-1.16-10.15-3.69-21.37-.72-31.75,2.26-7.73,2.22-16.17,5-20.35,11.83l.78.75M1085,601.32a2.13,2.13,0,0,0-2.08-.27,14.31,14.31,0,0,0-4.76,1.85,6.17,6.17,0,0,0-2.81,4.13c-.18,1.38,1.32,2.33,2.6,2.89,2.18,1,4.48,2,6.87,1.79,3-.23,5.49-2.23,7.6-4.33a4.3,4.3,0,0,0,1.53-2.56c.08-1-.9-2.12-1.85-1.76a6.67,6.67,0,0,1-7.1-1.74m-57.54,14.13a10.32,10.32,0,0,0,6-5.6l.83-2q2.37-5.52,4.75-11.06a6.46,6.46,0,0,0,.75-3.14,42.75,42.75,0,0,0-6,5.4,31.54,31.54,0,0,0-4.52,7.33c-.81,1.72-1.53,3.49-2.17,5.29-.45,1.26-.75,2.92.32,3.73m41.65-45.8c-.86.07-1.71.14-2.56.29a19.5,19.5,0,0,0-6.22,2.4,27.54,27.54,0,0,0-5.12,3.65,3.08,3.08,0,0,0,2.67-.28,91.8,91.8,0,0,1,20.21-6c-.15-.6-1-.68-1.56-.63l-7.42.58m17.86,29.9c1.32-.19,1.43-2.87,2.72-2.52.69.18.77,1.12,1.14,1.74a3.47,3.47,0,0,0,2.15,1.27,1.48,1.48,0,0,0,1.57-1.23,2.53,2.53,0,0,0-.61-2,4.14,4.14,0,0,0-3-1.53,11.81,11.81,0,0,0-3.37,1.22c-1,.7-1.49,2.27-.62,3.09m7.91-5.34c.72-.17.26-1.33-.42-1.64a3.72,3.72,0,0,0-3.3.09,9.8,9.8,0,0,0,3.26,1.51,1,1,0,0,0,.46,0m-4.28,7.31a1.23,1.23,0,0,0-2-.18,2.21,2.21,0,0,0,1.67.26Z"/><path d="M1148.39,493.68c12.26,27.07,11.37,58.32,6.14,87.57S1140,639,1136,668.43c13.38-.17,28.38-11.43,38.51-2.69,5.5,4.74,5.79,13.54,2.63,20.09s-9,11.36-14.58,15.95c-49.61,40.56-99.34,81.2-153.06,116.13-13,8.43-26.79,16.74-42.19,18.13-20.58,1.86-40.2-9-56.38-21.81-23.54-18.69-42.8-42.17-60.59-66.39-20.6-28.05-40.36-63-29.13-95.9a109.43,109.43,0,0,1-86.53-6.08c7.23-27.43,36.28-47.26,64.46-44a68.72,68.72,0,0,1-10.26-62L709.74,567a105.89,105.89,0,0,1,25.19-32.61c15-13,21.12-35.28,15-54.15l-6.87-2.78,9.53-.74a179.14,179.14,0,0,1-2.39,45.48c12.94-5.76,27.63.93,40.79,6.15a197.72,197.72,0,0,0,55.32,13.15l-2.71-13.49a53.19,53.19,0,0,0,50.92,14.73c0,8.59-12.27,10.09-20.74,8.7s-20.74.24-20.62,8.83A151.37,151.37,0,0,0,957.63,542.5,331.61,331.61,0,0,1,957,503a546.39,546.39,0,0,1,4.35,71.53,29.58,29.58,0,0,0,9.57-26.82l-8.86-3.23a15.91,15.91,0,0,1,10.48,1.71,256.63,256.63,0,0,0,13.39-52,246.78,246.78,0,0,1-21.08,80.07c-3.24,7.13-3.22,15.26-3.14,23.09q.32,33.63.65,67.25c0,2.59.34,5.68,2.63,6.89,2,1,4.35.08,6.35-.86,7.52-3.55,15.29-7.28,20.59-13.68s7.36-16.28,2.5-23a17.93,17.93,0,0,1-.36-20l-7,2c-6.21-2.86-12.62-5.87-17-11.08s-6.25-13.28-2.38-18.91a123.75,123.75,0,0,0,16.53-34.46c7.71-8.91-2.78-22.17-2.27-33.94.49-11.56,11.42-19.5,21.23-25.63,19.48-12.16,39.21-24.44,61.09-31.43s46.48-8.21,67.27,1.54l-19-17.92q2.76,4.26,5.53,8.5c-27.52-25-67.92-34.95-103.91-25.61a167.52,167.52,0,0,1,91.5,26.88c-42.19-20.51-92.17-36-135.13-17.2a20.94,20.94,0,0,1-.73,22.05c14.42,2.49,24,20.11,18.22,33.57.45-7.75.31-16-3.68-22.64s-13-10.86-19.81-7.05a20.77,20.77,0,0,0,4.15-25.23l12.61-6.08c-72.81-12.89-150.45,4-211.36,45.91-8.45,5.82-20.63-3.67-21.05-13.92s6.53-19.22,13.56-26.68a242.08,242.08,0,0,1,79.16-55.75c-8.3-9.33-8.15-23.92-3-35.29s14.46-20.26,23.52-28.85a14.27,14.27,0,0,1-5.84-14.42,35.1,35.1,0,0,1,7.68,12.2,110.3,110.3,0,0,1,82.49-26.36c14.48,1.45,29.76,6.62,37.86,18.71s4.65,32-9.16,36.6c7.58-1.4,15.36,6.15,14.2,13.76a317.49,317.49,0,0,0,58.08,16.59A100.59,100.59,0,0,0,990,353.36a78,78,0,0,1,60.44,22.16,246.7,246.7,0,0,1-61.32-16.36c-1.45,6.63,3,13.42,8.84,16.87s12.81,4.3,19.55,5.08c-13.63,4.74-30.27-6.24-31.27-20.64l-12.92-2.72c13.65,11.19,10,34.86-3.41,46.29s-32.7,13.07-50.24,11.14a154.25,154.25,0,0,1-70.42-26.24c-2.7-1.87-5.56-3.89-8.84-4-2.48-.07-4.84,1-7.07,2.08a249,249,0,0,0-62.64,43.22c-7,6.59-13.71,13.85-17.06,22.83S751,473.18,757.72,480c45.27-25.41,92.79-51.49,144.67-53.27,33.33-1.14,68.89,7.53,98.7-7.41,13-6.53,28.42-6.64,42.87-4.55,47.53,6.9,91,37.39,113.77,79.71l-9.34-.81m.92-2.69a11.6,11.6,0,0,0,6,1.1,34.73,34.73,0,0,1-7.68-9.13c-1.43-2.46-2.69-5.24-5.13-6.7.08,1.9,1.09,3.62,2,5.29a54.93,54.93,0,0,1,3.58,8.31,2.26,2.26,0,0,0,1.24,1.13m-313.2,111.7c-3.36,0-6.66-1-10-1.08s-7.11,1.13-8.65,4.12c4.29.92,5.66,6.26,6.18,10.62.31,2.62,0,6.15-2.55,6.72-3.23.7-7.14,2.12-7.49,5.41-.9,8.53-7.5,16.44-16,17.87s-17.77-4.65-19-13.15c-.85-5.92,2-11.82,5.81-16.43s8.61-8.32,12.69-12.7a46.14,46.14,0,0,0-36.93,8.63c-10.92,8.47-17.33,21.32-25.33,32.6,9.69.42,18.38,5.79,27.63,8.72,18.6,5.88,38.81,1.68,57.47-4a28.36,28.36,0,0,0-2.74-18.14c-1.09-2.09-2.44-4.7-1-6.59a40.21,40.21,0,0,1,6.22,23.5c2.12.35,4.23-.53,6.16-1.45a117.06,117.06,0,0,0,35-25.5c-5.74-4.4-4.61-14.46-10.64-18.43-4.8-3.16-11.13-.62-16.88-.69M847,556.58c.36,1.66,2.79,2,4.18,1s2-2.71,2.59-4.3,1.44-3.28,3-4a7.51,7.51,0,0,1,3.86-.16,44.53,44.53,0,0,0,19-1.85c-3.29-2.07-7.34-2.41-11.15-3.19a46.74,46.74,0,0,1-23.89-13,89.58,89.58,0,0,0,4.59,9,5.44,5.44,0,0,0,2.24,2.47c.77.35,1.66.33,2.45.63s1.52,1.15,1.19,1.93a55.69,55.69,0,0,1-13.44-1.37c-4.51-1-8.92-2.63-13.53-3.05-4.13-.38-8.44.18-12.32-1.3-7.55-2.9-16-1.71-24-.48a3,3,0,0,0-1.24.39c-.86.59-.84,1.84-.77,2.89.62,9.92-2.9,19.8-1.92,29.7,1.06,10.74,7.25,20.19,13.25,29.15a77.93,77.93,0,0,1,24-6.92c3.1-.37,5.75-2.35,8.06-4.44a56.62,56.62,0,0,0,16.78-28c.33-1.32-1.29-2.23-2.63-2.5s-3-.69-3.23-2l5.25-5.75c-.78,1.69-1.57,3.37-2.36,5.06m277.1,149.92c-2.1,6.56-4.23,13.16-7.53,19.2a55.15,55.15,0,0,1-39.88,27.68c5-15.25,17.61-26.56,29-38s22.46-24.91,23.2-41q-52.18,17.82-105.79,31c3,7.43.41,15.9-3.1,23.1-9.2,18.86-27.85,35.51-48.73,33.44a8.86,8.86,0,0,1-4-1.14c-2.34-1.52-3-4.65-3-7.44,0-16.49,15.18-32.43,8.8-47.63l-37.57-3.42c-5.63-.51-11.89-.85-16.31,2.67a194.17,194.17,0,0,1-24.11,16.4c-2.24,1.28-4.62,2.55-7.2,2.52s-5.31-1.86-5.41-4.43a6.43,6.43,0,0,1,1.25-3.61c8.89-14,30.29-11.42,44.19-20.43,6-3.87,10.38-9.81,16.37-13.65s15-4.81,19.42.79q-.51-4.57-1-9.15c-7.46-1-12.19-8.17-17.27-13.73s-14.07-10-19.7-5a14.08,14.08,0,1,1-.6-21.54c5.14,4.08,14.1-5.21,18.55-.38,2.57,2.78.43,7.15-1.14,10.6s-1.18,9.08,2.61,9.22a5.43,5.43,0,0,0,2.67-.77c12.19-6.31,13.12-23.08,12.41-36.78q-.93-17.92-1.87-35.84-52.45,11-105.39,19.55l12.78,23.68A110.47,110.47,0,0,1,826,650.19c-3.94,1.61-4.62,6.79-4.7,11-.26,13.62-.47,27.54,3.68,40.51,7.15,22.31,26,38.53,39.24,57.83,6.63,9.64,12,20.24,19.92,28.84,10.09,10.93,23.68,17.89,35.44,27,6.86,5.32,13.26,11.47,21.17,15,18.15,8.2,39.41.95,57.06-8.26,52.57-27.44,94.44-71.34,142.94-105.45,10.41-7.32,21.28-14.32,29.54-24,6.17-7.24,10.21-19.29,2.94-25.42-4.89-4.12-12.17-3-18.42-1.66-8.89,1.91-19.26,5.09-22,13.75l-8.68,27.1M1002.83,519.25q10-18.44,19.93-36.87A146.29,146.29,0,0,0,987,505.67,67.12,67.12,0,0,0,987,534c.84,3.92,2,7.82,2,11.83,0,9.68-6.83,17.76-11.85,26A78,78,0,0,0,967.76,595c-.59,2.59-1,5.54.56,7.71,1.68,2.36,4.92,2.82,7.68,3.69A20.54,20.54,0,0,1,987.18,615c.94-1.67,2-3.45,3.8-4.12s4.32.66,4,2.54a16,16,0,0,0,1.08,9c-2.87.37-4.14,4.15-3.18,6.89s3.31,4.7,5.32,6.8,3.85,4.81,3.38,7.67a11,11,0,0,1-2,4.17c-4.25,6.29-8.57,12.67-14.33,17.62S972,674,964.42,673.31c-1.17,5.53,4.61,10.54,10.26,10.8s10.87-2.72,15.73-5.6c8.67,10.36,25.94,12.91,30.47,25.64q52.44-13,103.66-30.41c2.46-.83,5.35-2.24,5.45-4.83,1.62-44.76,27.47-86.56,25.88-131.32-.29-8.17-1.73-16.82-7.18-22.92-7.44-8.34-7.79-21.11-14.64-29.95-5-6.52-13.12-10.11-21.24-11.59s-16.43-1.1-24.68-1.12c-6.5,0-13.05-.29-19.34-1.89-4.53-1.14-9.1-3-13.7-2.19a25,25,0,0,0-6.67,2.55c-12.83,6.4-26.51,13.61-33,26.42-3.89,7.75-5,17.27-11.36,23.14L1037.89,505c2.37-1.05,6.12-1.48,6.65,1.07l-11.94,4.51,20.05-3.19-47.1,13.83c-2.15.64-4.67,1.22-6.49-.09-3.49-2.5-.6-8-1.35-12.23-.35-2,3-2.68,4.23-1.12s.89,3.79.47,5.74-.79,4.17.42,5.75M981.74,334c3.65-4.47,7.51-9.54,7.13-15.3-.46-7-6.88-11.9-12.76-15.72s-12.08-7.72-18.76-10.25c-13.15-5-27.82-4.6-41.54-1.54a112.26,112.26,0,0,0-48.92,24.68l31.34,6.87c5.89,1.29,11.87,2.62,17.13,5.55s9.8,7.77,10.9,13.69c10.51-1.47,21.38-2.93,31.61-.1,3.24.9,6.49,2.24,9.85,2,5.88-.4,10.29-5.33,14-9.89M926.1,398.56a54.77,54.77,0,0,1-22.18,4.54c-2.42,0-5-.24-6.91-1.68s-2.87-4.47-1.33-6.32c.88-1.06-.75-2.34-2-2.86-8.48-3.48-13.42-13.88-10.75-22.65.33-1.1.57-2.65-.5-3.07q-18.76,6.83-37.15,14.65c13.14,14.77,32.46,22.46,51.6,27.4,13.29,3.42,27.07,5.78,40.73,4.44s27.3-6.69,36.63-16.75a27.72,27.72,0,0,0,3.87-5.16c5.25-9.43,1.54-21.82-5.86-29.66-1.08-1.15-3-2.25-4.06-1.12-5,5.13-11.8,8.06-18.48,10.68-11,4.33-23.14,8.22-34.54,5-.45-.13-.88.23-1.21.56q-7.12,7.14-13.6,14.86l19.43,3.11c2.65.43,5.9,1.4,6.34,4.05m-74,162a60.09,60.09,0,0,1-20.68,33.22c6.26-1.69,12,4.44,18.45,5.05,3.49.33,6.89-1,10.2-2.11,32-10.93,68.12-7.12,98.7-21.49l.7-26.25a5.92,5.92,0,0,0-.43-3,2,2,0,0,0-2.52-1.06C933.94,556.34,909.35,565,884,565.12a111.77,111.77,0,0,1-31.89-4.56m155.29,184.77a65.8,65.8,0,0,1,11-19.87,18.28,18.28,0,0,0,3.49-15.41c-.47-2-1.92-4.34-4-4a122.35,122.35,0,0,1-43.26-.81c3,5.48,2.41,12.23.58,18.19s-4.83,11.51-6.63,17.47a46.42,46.42,0,0,0-1.93,15.18c.06,1.51.29,3.19,1.46,4.15s2.85.82,4.34.61a85.27,85.27,0,0,0,28.59-9.42c2.65-1.44,5.41-3.23,6.38-6.08M842,376.93a3.51,3.51,0,0,0,1.69,1.63,3.71,3.71,0,0,0,2.47-.35l34.69-13.38a40.7,40.7,0,0,0,15.5-10.64c-14.07-6.46-22.84-20.62-29.72-34.49a2.53,2.53,0,0,0-3-1,7.09,7.09,0,0,0-2.78,1.9A118.3,118.3,0,0,0,844,340.84a49.56,49.56,0,0,0-4.25,7.59,31.34,31.34,0,0,0,2.23,28.5M898.2,353.3a69.7,69.7,0,0,1,22.39-10.11c1.14-.28,2.49-.73,2.77-1.88a2.93,2.93,0,0,0-.35-1.86c-2-4.38-5.84-7.71-10.1-9.94a58.77,58.77,0,0,0-13.66-4.6q-15.09-3.66-30.42-6.17A66.51,66.51,0,0,0,898.2,353.3M1146,490q-3.27-7.69-6.58-15.38c-2.45-5.7-7.6-9.91-13.28-12.42s-11.89-3.5-18-4.3c-8.62-1.12-17.35-1.89-26-1s-17.27,3.43-24.33,8.5a72.9,72.9,0,0,0,14,3.89c4.85.66,9.77.35,14.66.3a133.84,133.84,0,0,1,36.49,4.71,76.05,76.05,0,0,1,13.33,4.82c2.24,1.09,4.55,2.51,5.53,4.8.54,1.24.62,2.64,1.13,3.89s1.7,2.42,3,2.22M989.35,681.7a26.55,26.55,0,0,1-17.24,3.8,2,2,0,0,0-1.93,1.6,5.68,5.68,0,0,0,.26,2.7l3.33,12.71c.12.43.63.6,1.07.69a119,119,0,0,0,43.06.92,17.85,17.85,0,0,0-3.71-6.19,35.81,35.81,0,0,0-7.93-5.92L989.35,681.7M785.14,536.59a43.63,43.63,0,0,0,19-1,108,108,0,0,1-29.23-10.87,24.54,24.54,0,0,0-20.9-1.12,8.69,8.69,0,0,0-3.69,2.51c-1.23,1.61-1.44,3.75-1.61,5.77l-.7,8.67a8.28,8.28,0,0,0,.21,3.51c.87,2.46,3.9,3.57,6.49,3.21s4.87-1.81,7.17-3.06a108,108,0,0,1,11.56-5.2c3.74-1.52,7.73-3.06,11.72-2.4m124.7-158.85c4.74-5.28,9.6-10.75,11.95-17.45.12-.32-.34-.52-.67-.55-4.89-.42-9.78.51-14.6,1.43L891.9,364c-2.51.48-5.33,1.18-6.58,3.41a8.44,8.44,0,0,0-.76,4.14A26.82,26.82,0,0,0,886.07,382a15.67,15.67,0,0,0,9.18,8.71c1.07.38,2.43.57,3.19-.28l11.4-12.69M798.62,612.2c-1-.27-.75-1.91.09-2.54s2-.85,2.67-1.68a6.36,6.36,0,0,0-2.89-2.28,75.83,75.83,0,0,0-10,9.23c-3.61,4-6.89,8.6-7.77,13.91s1.29,11.44,6.16,13.75a19.21,19.21,0,0,0,5.19,1.37,21.94,21.94,0,0,0,5.17.43,14.33,14.33,0,0,0,8.17-3.78A20.43,20.43,0,0,0,812,628.5c.11-.75-.31-1.88-1-1.54a5.57,5.57,0,0,1-3.3.89c-1.14-.17-2.18-1.42-1.68-2.47a7.6,7.6,0,0,0,.29-5.79,39.6,39.6,0,0,1-5.29,4.9,7.83,7.83,0,0,1-4.09,1.92c-1.53.1-3.23-.89-3.38-2.41a13,13,0,0,1,10.69-8.38c.74-.07.18-1.23-.5-1.55a31.37,31.37,0,0,0-5.18-1.87m165.44,72.29c-4.12-.13-7.28-4.53-11.4-4.36-2.11.09-3.95,1.38-5.65,2.63a265.58,265.58,0,0,0-20.59,17q22.33,2.75,44.84,3.57c.27,0,.64-.1.58-.36q-1.46-6.11-2.9-12.22c-.66-2.77-2-6.16-4.88-6.25m114.51,66.89c4.45.57,8.65-1.9,12.45-4.28,7.48-4.67,15.11-9.48,20.56-16.41,7.41-9.43,9.94-21.69,12.2-33.47l-14.43,15.87L1098.52,725c-7.44,8.19-15,16.51-20,26.39M939.79,633.57a14.67,14.67,0,0,0-9.87,2.37c-1.6,1.08-3.81.35-5.36-.79s-2.84-2.69-4.62-3.45a8.52,8.52,0,0,0-6.44.27c-6.89,2.77-10.63,11.57-7.84,18.45,1.21,3,3.8,5.69,7,5.88a11,11,0,0,0,3.17-.41,45.5,45.5,0,0,0,10.1-3.77c-1.26-2.13-1.94-5-.39-7a3.77,3.77,0,1,1,5.12,5.45c-.46.33.39.84,1,.76a27.51,27.51,0,0,1,9,.3c-1.49-1.75-1.61-4.33-1-6.55a42.59,42.59,0,0,1,2.78-6.31c.55-1.2,1-2.64.32-3.77a3.85,3.85,0,0,0-3-1.48M747.53,527.17c-.73-.55-1.73.06-2.42.66-11.58,9.94-23.51,20.36-29.78,34.28,3.34-3.1,8.47-2.72,13-3.3A51.57,51.57,0,0,0,738.64,556c15.87-5.54,31.51-11.74,47.14-17.93-3.73-.78-7.5.79-11,2.33l-19.62,8.67c-3.16,1.4-7-1-8.28-4.23s-.88-6.81-.41-10.23q.53-3.74,1-7.46M968.1,358.56a8.12,8.12,0,0,0-3.49-.72c-9-.48-18.38-.89-26.56,2.86l-13,6c-3.36,1.54-7,3.42-8.26,6.9a1.37,1.37,0,0,0-.07,1c.18.44.71.61,1.17.72,4.88,1.07,10,.39,14.86-.69a94.23,94.23,0,0,0,35.36-16m53.06,63.05a87.91,87.91,0,0,1,16.7-.57,313.07,313.07,0,0,1,35.64,3.45c-12.15-5.53-25.73-6.93-39-7.86-8-.56-16-1-23.86.37s-15.61,4.61-21.05,10.43c10.73.89,21-4.17,31.62-5.82M959.3,344.14a4.8,4.8,0,0,0-2.95-1.1,96,96,0,0,0-27.71.49,2.84,2.84,0,0,0-1.34.47,2.53,2.53,0,0,0-.72,1.92,10.47,10.47,0,0,0,.44,3.48c-.33,2.27-.67,4.54-1,6.81,0,.23,0,.51.14.65a.6.6,0,0,0,.46.06l16.5-1.91a41.4,41.4,0,0,0,10.07-2c.41-.16.88-.65.55-.93a.59.59,0,0,0-.31-.12l-7.07-1.36a38.82,38.82,0,0,0-6.24-.84,44.12,44.12,0,0,0-8.39,1,4.18,4.18,0,0,1-2.05,0,1.42,1.42,0,0,1-1-1.57,1.91,1.91,0,0,1,1.26-1.13c3.08-1.25,6.54-.86,9.86-.94a67.82,67.82,0,0,0,10.61-1.35l8.91-1.61m-74.14,373c-1.33,1.45,0,4,1.93,4.51s3.87-.36,5.61-1.26a158.19,158.19,0,0,0,15.73-9.74c4.28-2.88,8.56-5.76,12.55-9a78.78,78.78,0,0,0-13.11,2.23c-1.75.46-3.49,1-5.2,1.6a44.85,44.85,0,0,0-17.51,11.68m246.12-46.46a1.78,1.78,0,0,0,2.6-.82,867.5,867.5,0,0,1,21.88-97.15c-.35-.92-1.67.15-1.93,1.11l-12.76,46.91c-.94,3.46-1.88,6.92-2.76,10.4a284.82,284.82,0,0,0-7,39.55m-174.54-25-7.35,8.1c-1,1.11-2.64,2.29-3.81,1.36a1.22,1.22,0,0,0-1.66.22,28.6,28.6,0,0,1,8.42,9.77,9.87,9.87,0,0,0,8.06,5.15c1.06.06,2.52-.64,2.11-1.62a50.44,50.44,0,0,1-2.43-7,32.71,32.71,0,0,1-.91-10.24q.39-5.29.76-10.59a13,13,0,0,1-3.19,4.82m-32-299c0-.89-.3-2-1.18-2.15a2,2,0,0,0-.87.12c-3.08.91-6.15,1.82-9.13,3-1.56.62-3.09,1.32-4.62,2l-6.42,2.91a2.15,2.15,0,0,0-1,.72.73.73,0,0,0,.26,1.06,66.71,66.71,0,0,0,14.78,3.17,1.22,1.22,0,0,0,1.11-.27,4.28,4.28,0,0,0,5.59-1.41,7,7,0,0,0,.78-2.14,26.7,26.7,0,0,0,.69-7m215.7,140.58c.72-.91.06-2.24-.71-3.11a13.24,13.24,0,0,0-8.43-4.27,48.9,48.9,0,0,1,10.65,17.29,79.6,79.6,0,0,0,11,20.64c.63-.77.42-1.9.18-2.87l-4.7-18.5c-.44-1.76-1-3.69-2.54-4.65-1.18-.74-2.66-.73-3.94-1.27s-2.34-2.18-1.47-3.26M900.47,393.79a2.86,2.86,0,0,0-1.69.2,2.91,2.91,0,0,0-1,1.61,5.49,5.49,0,0,0-.45,2,3.59,3.59,0,0,0,2.23,2.9,9.26,9.26,0,0,0,3.77.61,59.59,59.59,0,0,0,11.54-1.08,67.87,67.87,0,0,0,7.31-1.82.78.78,0,0,0,.37-.2c.37-.4-.29-.93-.82-1.06-2.31-.58-4.66-1-7-1.41-4.7-.78-9.44-1.37-14.19-1.78m-74.74,202a.72.72,0,0,0,.11-.79,8.34,8.34,0,0,1-2.19.69,154.48,154.48,0,0,0-19.47,5.69,2.19,2.19,0,0,0-1.12,2.61,6.36,6.36,0,0,0,1.67,2.6,2.26,2.26,0,0,0,1.14.82,2.14,2.14,0,0,0,1-.12,41.88,41.88,0,0,0,18.83-11.5m-9.81,11.78c-1.36.38-2.27,1.62-3.07,2.78-.49.71-1,1.41-1.46,2.12a2.75,2.75,0,0,0-.64,1.46,2.71,2.71,0,0,0,.53,1.4l3.43,5.73a2.41,2.41,0,0,0,1.31,1.26c1,.24,1.83-.85,2.82-1.18.66-.22,1.44-.12,2-.55a2.45,2.45,0,0,0,.59-2l0-3.14a12.26,12.26,0,0,0-.92-5.42c-.85-1.64-2.73-2.91-4.52-2.42M837.26,601a24.28,24.28,0,0,0,9.53-1.05A48.57,48.57,0,0,0,836,595.46a11.07,11.07,0,0,0-5.43-.46c-2.1.5-3.77,2-5.28,3.6a1.93,1.93,0,0,0-.6.94.68.68,0,0,0,.54.84c.56,0,.89-.85,1.44-.74A67,67,0,0,0,837.26,601m147.16-248.5c1.47,0,2.09-2.15,1.26-3.37s-2.38-1.67-3.8-2l-3.43-.88a13.26,13.26,0,0,0-4.23-.62,4.49,4.49,0,0,0-3.6,2c1-.19,1.87.78,2.29,1.72a5.82,5.82,0,0,0,1.54,2.64,4.21,4.21,0,0,0,2.44.51l7.53,0m-79,5c-2.35-.43-4.51-2.2-6.86-1.78a7.84,7.84,0,0,0-3.37,1.93L890,362c.17.44.78.41,1.23.3q9.32-2.14,18.8-3.41c-1-1.29-3-1.07-4.57-1.37M924,360.62a18.11,18.11,0,0,1-2.62,5.46c.72.77,2,0,2.8-.61a21.83,21.83,0,0,1,3-1.87A54.13,54.13,0,0,1,942,358.36c-.22-.77-1.28-.84-2.08-.75l-13.23,1.5c-1.11.13-2.46.44-2.76,1.51m24.72-11.94,6.28,1.77a8.1,8.1,0,0,0,4.34.41,8.38,8.38,0,0,0,1.7-.77l5.74-3.16a1,1,0,0,0,.52-.47c.23-.63-.78-.92-1.45-.83l-14.58,1.93a3.41,3.41,0,0,0-2.55,1.12m25,8.38c.38-.73,1.4-.74,2.22-.65q4.54.54,9,1.32c.93.16,1.24-1.19,1.14-2.13a1.24,1.24,0,0,0-.22-.71,1.34,1.34,0,0,0-.9-.37l-5.9-.76a10.28,10.28,0,0,0-3.71,0,3.46,3.46,0,0,0-2.65,2.35l1,1M877.32,552.65c.49.49,1.32.25,2,0A34,34,0,0,0,892.65,544c-.44-.7-1.51-.22-2.17.28a25.78,25.78,0,0,1-8.31,4.17c-2.08.6-3.08,3-4.85,4.21m-81,72.27c1.11-.95,2.89-.8,3.91-1.83l5.16-5.27a8.75,8.75,0,0,0-9.83,6.18l.76.92M1129,688.28a104.36,104.36,0,0,0,4.76-14,1.47,1.47,0,0,0,.07-.69c-.19-.86-1.55-.67-2.14,0a6.73,6.73,0,0,0-1.34,3.32q-1.07,5.19-2.14,10.39l.79,1M961.4,352.77a.73.73,0,0,0,.54.1l8.09-.54c1.34-.08,1.74-2.15.76-3.07a3.39,3.39,0,0,0-3.76-.18L962,351.64c-.46.23-1,.82-.57,1.13M1103.84,439a1.07,1.07,0,0,0-.56-.55c-4.77-2.77-8.74-7.13-14.07-8.53a.53.53,0,0,0-.37,0c-.37.17,0,.73.29.95l12.79,8.5a2.13,2.13,0,0,0,1.17.47c.43,0,.87-.41.75-.82M957,355.85l5.43-.37,3-.2a7.4,7.4,0,0,1,1.76,0,12.32,12.32,0,0,0,2.57.56c.88-.05,1.78-1,1.31-1.75-.34-.53-1.1-.54-1.73-.49q-7.71.66-15.38,1.66l1,1.06a4.57,4.57,0,0,1,2.1-.49M998.8,513.29a3.89,3.89,0,0,0,0,2.41c.43,1,.38,2.09.77,3.07s1.57,1.83,2.46,1.26c-1.82-1.11-1.64-3.78-1.14-5.86s.93-4.64-.7-6c-.53,1.7-1,3.41-1.38,5.15M808.35,625.41A1.93,1.93,0,0,0,811,624.2a4.39,4.39,0,0,0-.48-3.21c-.51-1.07,0-2.32,0-3.51a1.82,1.82,0,0,0-.64-1.62c-.51-.33-1.38,0-1.32.62a33.39,33.39,0,0,1-.22,8.93m120.88,20.32a1.18,1.18,0,0,0-.72,0,2.7,2.7,0,0,0-1.92,2.24c-.16,1.37,1.38,2.84,2.56,2.13.92-.56.92-1.87.82-2.94-.06-.57-.2-1.25-.74-1.45m105.52-170.4a1.9,1.9,0,0,0-.62.61,1.06,1.06,0,0,0-.05.87,13.35,13.35,0,0,0,6-3.68,13.59,13.59,0,0,0-5.28,2.2m-230,136.86c-.07.56.49.95.92,1.31a4,4,0,0,1,1.32,2.08,1.34,1.34,0,0,0,1-1.47,3.17,3.17,0,0,0-.87-1.69,2.33,2.33,0,0,0-1.18-.88.94.94,0,0,0-1.16.65M858.9,307.13c-.39-.2-.87.22-.9.66a2.05,2.05,0,0,0,.49,1.2l2,3a17.14,17.14,0,0,0-1.24-4.31,1,1,0,0,0-.39-.51m158.71,116.59a2.08,2.08,0,0,0-1.7.3,4.45,4.45,0,0,0,4.84-.63,2.25,2.25,0,0,0-2.9.48M811,609.64l2.4-2.4a2,2,0,0,0-2.4,2.4M801.6,605a.85.85,0,0,0-1.38-.46,2.88,2.88,0,0,0,.44,1.29,1,1,0,0,0,1.21.3c.38-.26.27-1-.18-1M813.37,622l-1-1c-.39.32-.24.94-.05,1.41a2.27,2.27,0,0,0,.68,1.07.78.78,0,0,0,1.12-.16,1.24,1.24,0,0,1-.75-1.31m-5-11c.66.35,1.3-.94.63-1.26s-1.31.94-.64,1.29M801,609.62a.84.84,0,0,0,0,1.33l1-1-1-.42m353.81-41.15c-.29,0-.3.55,0,.57s.28-.56,0-.57Z"/></g></g></g></svg>