<svg id="Layer_1" data-name="Layer 1" xmlns="http://www.w3.org/2000/svg" viewBox="0 0 1920 1080"><g id="Shape_31" data-name="Shape 31"><path d="M1124,433l-1.9-.86a1.23,1.23,0,0,1,2.11.59Z"/><path d="M990.73,525.9a6.91,6.91,0,0,1,4.53.7,2,2,0,0,1,.91,1A5.7,5.7,0,0,1,990.73,525.9Z"/><path d="M996.62,528.49l-.53-.86.85.53Z"/><path d="M864.94,529.69c-.13-.55,0-1.39.55-1.31a1,1,0,0,1-.57,1.41Z"/><path d="M865.6,528.31c-.23-.25.23-.69.47-.45s-.2.7-.45.47Z"/><path d="M1140.06,450.59a48.09,48.09,0,0,0-6.27-8.47c-.61-.66-1.28-1.67-.71-2.38a47.4,47.4,0,0,1,8.83,10.77,1.13,1.13,0,0,1,.22.65c0,.48-.69.69-1.13.49A2.32,2.32,0,0,1,1140.06,450.59Z"/><path d="M1017.67,564.65c-3.88-4.26-3.35-10.86-5.61-16.16s-7.1-9-9.33-14.23a32.2,32.2,0,0,1,11,15.56c1.12,3.47,1.65,7.13,3.16,10.44s4.18,6.45,4.92,10.16c.61,3.05-.13,6.18-.24,9.29s.64,6.62,3.27,8.28c3.81,2.41,8.73-.45,13.25-.32-4.63,2.26-10.49,4.43-14.57,1.29-3.43-2.62-3.69-7.63-3.44-11.94S1020.57,567.85,1017.67,564.65Z"/><path d="M1113,580.78c.41,1.27,1.22,2.46,1.17,3.8-.07,1.68-1.49,3-2.83,4a72.7,72.7,0,0,1-31.93,13.87,64.7,64.7,0,0,0,10.62,5.33c7.36,2.65,15.35,2.76,23.18,2.85,7,.07,14.77-.13,19.9-4.91,4.1-3.82,5.47-9.66,6.65-15.14q2.17-10.18,4.37-20.37a9.79,9.79,0,0,0,.32-3.48c-.48-3.17-3.77-5-6.68-6.33l-3-1.4L1123,553.53a15,15,0,0,0-4.62-1.54,14.53,14.53,0,0,0-4.1.35,290.8,290.8,0,0,0-46.56,12.57c-4.24,1.53-8.91,3.62-10.44,7.86a124,124,0,0,1-7.49,16.78c-1,1.84-2.14,3.75-4,4.68s-4.63.32-5.23-1.67c-.49-1.64.6-3.28,1.64-4.64l-4-.47c2.7.31,4.59-2.47,6-4.8a57.84,57.84,0,0,1,18.42-18.83c-1.82-1.16-4.1.32-5.91,1.49-8.13,5.26-19.05,4.77-27.79.61a21.17,21.17,0,0,1-9-7.28c-3.2-5-3-11.4-2.74-17.35l1.83-38c.06-1.22,1.17-2.91,2-2l-1,15.87c-.64,10-1.28,20-1,30.07.08,3.26.29,6.62,1.75,9.53,1.76,3.48,5.13,5.88,8.68,7.49a32.67,32.67,0,0,0,34.65-5.45c4.08-3.7,7.33-8.55,12.33-10.84a24.89,24.89,0,0,1,6.92-1.76,83.51,83.51,0,0,1,61.77,16.38c1.59,1.23,3.31,3.1,2.59,5a89.83,89.83,0,0,0-4.7,16.81c-.91,5.13-1.38,10.38-3.17,15.26s-5.18,9.51-10.08,11.27a26,26,0,0,1-7,1.12c-13.58.87-28.12,1.52-39.8-5.45-2.65-1.58-5.13-3.55-8-4.54-2.73-.94-5.72-1-8.41-2-3.27-1.27-5.81-3.87-8.23-6.41-.68-.71-1.41-1.73-.91-2.57s1.65-.74,2.54-.47c6.77,2,11.49,9.31,18.54,9.77a18.63,18.63,0,0,0,6.63-1.11,96.27,96.27,0,0,0,18.48-7.9c-3.7.41-7.64.77-11-.93s-5.4-6.29-3.16-9.27c1.53-2,4.31-2.52,6.76-3.22s5.15-2.26,5.29-4.8c-4.33,2-9.16,2.72-13.9,3.38l-30,4.15c15-6.58,33.4-2.84,47.6-11,1.27-.74,2.62-1.59,4.08-1.43,2.39.25,3.65,3,3.72,5.46s-.56,4.9.17,7.19m-1.61,2.71a.73.73,0,0,0-.34.39c-.56,1-1.11,2.11-1.66,3.16a2.77,2.77,0,0,0,2.7-2.77c0-.41-.32-.92-.7-.78m-41.24,15.42a97.9,97.9,0,0,0-8.43-5.54c-.55-.32-1.44-.54-1.68,0a34.55,34.55,0,0,0,7.2,5,3.42,3.42,0,0,0,2.91.47m-6.46-34.06c11.71-5.25,24.24-8.4,36.69-11.52a63.12,63.12,0,0,1,11.69-2.15c1.11-.07,2.42-.19,2.94-1.17-10.14-3.68-21.36-.72-31.74,2.26-7.73,2.23-16.17,5-20.36,11.84l.78.74m36.77,14.54c-.49-.55-1.36-.44-2.08-.27a14.15,14.15,0,0,0-4.77,1.85,6.15,6.15,0,0,0-2.8,4.12c-.18,1.39,1.32,2.33,2.59,2.9,2.19,1,4.49,2,6.88,1.78,3-.22,5.49-2.22,7.6-4.33a4.32,4.32,0,0,0,1.53-2.55c.08-1-.9-2.12-1.85-1.77a6.66,6.66,0,0,1-7.1-1.73M1043,593.51a10.25,10.25,0,0,0,6-5.59l.84-1.95,4.74-11.06a6.5,6.5,0,0,0,.76-3.14,42.75,42.75,0,0,0-6,5.4,30.82,30.82,0,0,0-4.52,7.32,56.47,56.47,0,0,0-2.17,5.29c-.45,1.26-.75,2.92.31,3.73m41.66-45.79c-.86.07-1.72.13-2.56.28a19.89,19.89,0,0,0-6.23,2.4,26.75,26.75,0,0,0-5.11,3.66,3.09,3.09,0,0,0,2.66-.28,92.14,92.14,0,0,1,20.21-6c-.14-.59-.94-.67-1.55-.62l-7.42.58m17.86,29.9c1.31-.19,1.43-2.87,2.71-2.53.7.19.78,1.12,1.14,1.74a3.48,3.48,0,0,0,2.16,1.28,1.5,1.5,0,0,0,1.57-1.23,2.57,2.57,0,0,0-.62-2,4.1,4.1,0,0,0-3-1.53,12,12,0,0,0-3.37,1.23c-1,.7-1.49,2.26-.62,3.09m7.91-5.35c.72-.17.26-1.32-.42-1.64a3.79,3.79,0,0,0-3.3.09,9.87,9.87,0,0,0,3.25,1.52,1.07,1.07,0,0,0,.47,0m-4.29,7.32a1.22,1.22,0,0,0-2-.18,2.22,2.22,0,0,0,1.67.25Z"/><path d="M1163.92,471.74c12.27,27.07,11.38,58.32,6.15,87.57s-14.54,57.73-18.51,87.18c13.38-.16,28.37-11.42,38.51-2.69,5.5,4.75,5.78,13.55,2.63,20.09s-9,11.36-14.58,16c-49.61,40.55-99.34,81.2-153.07,116.12-13,8.43-26.78,16.74-42.19,18.13-20.57,1.86-40.2-9-56.38-21.8-23.53-18.69-42.79-42.17-60.59-66.39-20.6-28-40.35-63-29.12-95.91a109.47,109.47,0,0,1-86.53-6.07c7.23-27.43,36.28-47.27,64.46-44a68.74,68.74,0,0,1-10.26-62l-79.16,27.2a106,106,0,0,1,25.18-32.62c15-13,21.12-35.27,15-54.14l-6.86-2.79,9.53-.74a179.68,179.68,0,0,1-2.39,45.49c12.93-5.77,27.63.93,40.79,6.15a198.09,198.09,0,0,0,55.31,13.15l-2.7-13.5a53.17,53.17,0,0,0,50.91,14.74c0,8.58-12.26,10.09-20.73,8.69s-20.75.25-20.62,8.84a151.33,151.33,0,0,0,104.46-17.82,329.52,329.52,0,0,1-.61-39.5,546.59,546.59,0,0,1,4.34,71.53,29.54,29.54,0,0,0,9.58-26.81l-8.87-3.23a15.88,15.88,0,0,1,10.49,1.71,256.89,256.89,0,0,0,13.39-52,246.71,246.71,0,0,1-21.08,80.07c-3.24,7.14-3.22,15.26-3.15,23.1q.33,33.61.65,67.24c0,2.59.35,5.69,2.64,6.89,2,1,4.34.09,6.35-.86,7.52-3.54,15.29-7.28,20.58-13.68s7.37-16.28,2.5-23a18,18,0,0,1-.36-20l-7,2c-6.2-2.86-12.62-5.87-17-11.08s-6.26-13.28-2.38-18.91a124,124,0,0,0,16.53-34.47c7.7-8.9-2.78-22.17-2.28-33.94.5-11.55,11.42-19.49,21.24-25.62,19.48-12.16,39.21-24.45,61.09-31.43s46.48-8.22,67.27,1.53l-19-17.91,5.53,8.5c-27.52-25-67.93-34.95-103.91-25.61a167.51,167.51,0,0,1,91.5,26.87c-42.19-20.51-92.18-36-135.13-17.2a20.92,20.92,0,0,1-.74,22.05c14.43,2.49,24,20.12,18.23,33.58.45-7.75.31-16-3.68-22.64s-13-10.86-19.82-7.05a20.77,20.77,0,0,0,4.15-25.24l12.62-6.07c-72.82-12.89-150.46,4-211.36,45.91-8.45,5.81-20.63-3.68-21-13.92s6.52-19.22,13.55-26.69a242.2,242.2,0,0,1,79.17-55.74c-8.3-9.34-8.16-23.92-3-35.29s14.46-20.26,23.52-28.86a14.25,14.25,0,0,1-5.84-14.42,35.11,35.11,0,0,1,7.67,12.21,110.3,110.3,0,0,1,82.5-26.36c14.48,1.44,29.75,6.62,37.85,18.71s4.66,32-9.15,36.59c7.57-1.39,15.35,6.15,14.19,13.77a318.62,318.62,0,0,0,58.09,16.59,100.67,100.67,0,0,0-57.43-20.45,78,78,0,0,1,60.44,22.17,247.13,247.13,0,0,1-61.32-16.36c-1.45,6.63,3,13.42,8.84,16.86s12.81,4.31,19.55,5.09c-13.64,4.74-30.27-6.24-31.27-20.64l-12.93-2.72c13.66,11.18,10,34.86-3.41,46.28s-32.7,13.08-50.24,11.15A154.11,154.11,0,0,1,864.74,367c-2.7-1.86-5.56-3.89-8.84-4-2.48-.06-4.84,1-7.08,2.09a248.48,248.48,0,0,0-62.63,43.22c-7,6.59-13.71,13.85-17.07,22.83s-2.59,20.08,4.14,26.91c45.26-25.41,92.79-51.48,144.67-53.26,33.33-1.15,68.88,7.53,98.7-7.41,13.05-6.54,28.42-6.65,42.86-4.55,47.54,6.9,91.06,37.38,113.77,79.7l-9.34-.81m.93-2.69a11.5,11.5,0,0,0,6,1.1,34.31,34.31,0,0,1-7.68-9.12c-1.44-2.46-2.69-5.24-5.13-6.71.08,1.9,1.09,3.62,2,5.3a54.39,54.39,0,0,1,3.58,8.3,2.16,2.16,0,0,0,1.24,1.13m-313.2,111.7c-3.37,0-6.67-1-10-1.07s-7.11,1.13-8.65,4.12c4.29.92,5.66,6.26,6.18,10.61.31,2.63,0,6.16-2.55,6.72-3.23.71-7.15,2.13-7.49,5.41-.9,8.53-7.5,16.45-16,17.87s-17.77-4.65-19-13.14c-.84-5.93,2-11.83,5.82-16.44s8.61-8.32,12.69-12.69a46.11,46.11,0,0,0-36.93,8.62c-10.92,8.48-17.34,21.32-25.34,32.6,9.7.42,18.38,5.8,27.63,8.72,18.6,5.89,38.82,1.68,57.48-4a28.39,28.39,0,0,0-2.74-18.15c-1.09-2.08-2.44-4.69-1-6.59A40.22,40.22,0,0,1,838,626.83c2.12.35,4.22-.54,6.16-1.45a117.36,117.36,0,0,0,35-25.5c-5.74-4.4-4.61-14.46-10.65-18.44-4.79-3.15-11.13-.62-16.87-.69m10.89-46.1c.37,1.66,2.8,2,4.18,1s2-2.7,2.6-4.29,1.43-3.28,3-3.95a7.44,7.44,0,0,1,3.87-.16,44.68,44.68,0,0,0,19-1.85c-3.29-2.08-7.34-2.42-11.15-3.19a46.79,46.79,0,0,1-23.9-13,95.33,95.33,0,0,0,4.59,9,5.57,5.57,0,0,0,2.25,2.47c.77.34,1.66.33,2.45.63s1.52,1.15,1.18,1.93a55.25,55.25,0,0,1-13.44-1.38c-4.51-1-8.91-2.63-13.52-3-4.13-.37-8.45.19-12.32-1.3-7.55-2.89-16-1.7-24-.47a3,3,0,0,0-1.24.38c-.86.6-.84,1.85-.78,2.89.63,9.92-2.89,19.81-1.92,29.7,1.07,10.74,7.25,20.19,13.26,29.15a78.2,78.2,0,0,1,24-6.92c3.1-.37,5.75-2.34,8.06-4.44a56.55,56.55,0,0,0,16.78-28c.33-1.32-1.3-2.24-2.63-2.5s-3-.69-3.24-2l5.26-5.76-2.37,5.07m277.1,149.92c-2.1,6.55-4.22,13.15-7.52,19.2a55.19,55.19,0,0,1-39.88,27.68c5-15.26,17.61-26.56,28.94-38s22.47-24.91,23.2-41q-52.17,17.81-105.78,31c3,7.43.41,15.9-3.1,23.1-9.2,18.86-27.85,35.51-48.73,33.44a8.85,8.85,0,0,1-4-1.13c-2.34-1.52-3-4.66-3-7.45,0-16.49,15.18-32.43,8.8-47.63L951,680.46c-5.63-.52-11.89-.85-16.32,2.67a191.55,191.55,0,0,1-24.11,16.39c-2.23,1.28-4.62,2.56-7.19,2.53s-5.31-1.86-5.41-4.44a6.46,6.46,0,0,1,1.24-3.6c8.89-14,30.3-11.43,44.2-20.44,6-3.87,10.38-9.81,16.37-13.65s15-4.81,19.42.79c-.35-3.05-.69-6.1-1-9.15-7.47-1-12.19-8.17-17.28-13.73s-14.07-10-19.69-5a14.08,14.08,0,1,1-.61-21.55c5.15,4.09,14.1-5.21,18.56-.38,2.57,2.79.42,7.15-1.14,10.61s-1.18,9.08,2.61,9.22a5.6,5.6,0,0,0,2.67-.77c12.19-6.31,13.12-23.08,12.41-36.79q-.94-17.91-1.87-35.83-52.46,11-105.39,19.55,6.39,11.83,12.77,23.67a110.32,110.32,0,0,1-39.69,27.67c-3.93,1.6-4.61,6.78-4.69,11-.26,13.62-.48,27.53,3.68,40.51,7.15,22.31,26,38.52,39.24,57.83,6.63,9.64,12,20.24,19.92,28.83,10.09,10.94,23.67,17.9,35.44,27,6.86,5.32,13.25,11.48,21.17,15,18.15,8.19,39.4,1,57.06-8.27,52.57-27.44,94.43-71.33,142.94-105.44,10.41-7.32,21.28-14.33,29.53-24,6.17-7.24,10.22-19.29,3-25.42-4.9-4.12-12.17-3-18.43-1.66-8.89,1.91-19.25,5.09-22,13.75q-4.35,13.54-8.69,27.1M1018.37,497.32l19.92-36.87a146.39,146.39,0,0,0-35.73,23.28,67.12,67.12,0,0,0-.07,28.29c.84,3.93,2,7.83,2,11.84,0,9.67-6.83,17.75-11.85,26a78.39,78.39,0,0,0-9.38,23.17c-.58,2.59-1,5.55.57,7.71,1.68,2.37,4.91,2.82,7.68,3.69a20.53,20.53,0,0,1,11.17,8.65c.94-1.66,2-3.44,3.81-4.11s4.31.66,4,2.54a16,16,0,0,0,1.08,9c-2.88.38-4.14,4.16-3.18,6.9s3.31,4.7,5.32,6.79,3.85,4.82,3.38,7.68a11.07,11.07,0,0,1-2,4.17c-4.25,6.29-8.57,12.66-14.33,17.61s-13.24,8.39-20.8,7.7c-1.18,5.52,4.61,10.54,10.26,10.79s10.87-2.72,15.73-5.59c8.67,10.36,25.94,12.91,30.47,25.63q52.42-13.05,103.66-30.41c2.45-.83,5.35-2.24,5.45-4.82,1.61-44.77,27.47-86.56,25.88-131.33-.29-8.17-1.74-16.82-7.18-22.92-7.44-8.33-7.79-21.11-14.64-29.94-5-6.52-13.12-10.11-21.24-11.59s-16.44-1.1-24.68-1.12c-6.5,0-13.05-.3-19.35-1.89-4.52-1.15-9.1-3-13.69-2.19a24.58,24.58,0,0,0-6.67,2.55c-12.83,6.4-26.51,13.61-33,26.42-3.9,7.74-5,17.27-11.37,23.13l33.78-15.05c2.38-1.06,6.13-1.48,6.66,1.06l-11.95,4.52,20.06-3.2-47.1,13.84c-2.15.63-4.67,1.21-6.5-.09-3.49-2.5-.59-8-1.34-12.24-.35-2,3-2.67,4.22-1.12s.9,3.8.48,5.74-.79,4.18.42,5.76M997.28,312.06c3.65-4.47,7.51-9.54,7.13-15.3-.46-7-6.88-11.89-12.76-15.72s-12.09-7.72-18.77-10.24c-13.14-5-27.82-4.6-41.53-1.54a112.1,112.1,0,0,0-48.92,24.68l31.34,6.87c5.88,1.29,11.87,2.61,17.13,5.55s9.8,7.76,10.9,13.69c10.51-1.48,21.37-2.93,31.6-.1,3.25.9,6.49,2.23,9.86,2,5.88-.4,10.29-5.34,14-9.9m-55.64,64.57a55,55,0,0,1-22.19,4.54c-2.41,0-5-.25-6.91-1.68s-2.87-4.47-1.32-6.33c.87-1.05-.76-2.33-2-2.86-8.49-3.47-13.43-13.88-10.76-22.65.34-1.1.58-2.64-.49-3.06q-18.77,6.82-37.15,14.64c13.13,14.78,32.46,22.47,51.6,27.4,13.29,3.43,27.06,5.78,40.72,4.45s27.3-6.69,36.64-16.76a27.39,27.39,0,0,0,3.87-5.16c5.25-9.42,1.54-21.81-5.86-29.66-1.08-1.15-3-2.24-4.06-1.12-5,5.14-11.81,8.06-18.48,10.68-11,4.34-23.14,8.22-34.54,5-.45-.12-.88.24-1.22.57q-7.11,7.13-13.6,14.86l19.43,3.11c2.66.42,5.9,1.4,6.35,4.05m-74,162A60.07,60.07,0,0,1,847,571.85c6.27-1.69,12,4.44,18.46,5,3.49.33,6.89-1,10.2-2.11,32-10.92,68.12-7.11,98.69-21.48l.71-26.26a5.94,5.94,0,0,0-.43-3A2,2,0,0,0,972.1,523c-22.62,11.38-47.21,20.09-72.53,20.17a111.84,111.84,0,0,1-31.9-4.56M1023,723.4a65.58,65.58,0,0,1,11-19.87,18.31,18.31,0,0,0,3.49-15.41c-.47-2-1.92-4.34-4-4a122.64,122.64,0,0,1-43.27-.81c3,5.47,2.42,12.23.59,18.19S985.93,713,984.13,719a46.32,46.32,0,0,0-1.93,15.17c.06,1.52.28,3.2,1.46,4.15s2.85.83,4.34.62a85.06,85.06,0,0,0,28.59-9.43c2.65-1.43,5.4-3.23,6.38-6.07M857.53,355a3.56,3.56,0,0,0,1.68,1.64,3.8,3.8,0,0,0,2.48-.35l34.69-13.38a40.81,40.81,0,0,0,15.5-10.64c-14.07-6.47-22.84-20.62-29.72-34.49a2.52,2.52,0,0,0-3-1,7,7,0,0,0-2.77,1.89,118.37,118.37,0,0,0-16.88,20.28,48.28,48.28,0,0,0-4.25,7.59A31.32,31.32,0,0,0,857.53,355m56.21-23.62a69.6,69.6,0,0,1,22.39-10.11c1.14-.29,2.49-.74,2.77-1.88a3,3,0,0,0-.35-1.86c-2-4.38-5.84-7.72-10.11-9.95a59.48,59.48,0,0,0-13.65-4.6q-15.09-3.64-30.42-6.16a66.47,66.47,0,0,0,29.37,34.56m247.79,136.7q-3.27-7.69-6.57-15.37c-2.45-5.7-7.61-9.91-13.28-12.42s-11.89-3.51-18-4.31c-8.61-1.11-17.34-1.88-26-1s-17.27,3.43-24.33,8.5a73.39,73.39,0,0,0,14,3.88c4.84.67,9.76.35,14.65.3a133.79,133.79,0,0,1,36.49,4.71,76.28,76.28,0,0,1,13.33,4.82c2.25,1.1,4.56,2.51,5.54,4.81.53,1.24.62,2.63,1.13,3.89s1.7,2.42,3,2.21M1004.89,659.76a26.58,26.58,0,0,1-17.24,3.81,1.93,1.93,0,0,0-1.93,1.59,5.55,5.55,0,0,0,.26,2.7l3.33,12.72c.11.43.63.59,1.06.68a118.79,118.79,0,0,0,43.07.92,17.9,17.9,0,0,0-3.71-6.18,35.34,35.34,0,0,0-7.94-5.92l-16.9-10.32M800.68,514.66a43.93,43.93,0,0,0,19-1,107.72,107.72,0,0,1-29.24-10.88,24.55,24.55,0,0,0-20.89-1.12,8.71,8.71,0,0,0-3.69,2.52c-1.24,1.6-1.45,3.75-1.61,5.77l-.71,8.67a8.57,8.57,0,0,0,.21,3.5c.88,2.47,3.91,3.57,6.5,3.21s4.87-1.8,7.17-3A110.82,110.82,0,0,1,789,517.05c3.75-1.51,7.74-3.06,11.73-2.39M925.38,355.8c4.74-5.28,9.59-10.75,12-17.44.11-.32-.34-.52-.68-.55-4.88-.43-9.77.5-14.59,1.43l-14.62,2.81c-2.51.48-5.33,1.18-6.59,3.41a8.55,8.55,0,0,0-.76,4.14c0,3.55.16,7.18,1.51,10.46a15.74,15.74,0,0,0,9.18,8.72c1.07.37,2.44.56,3.2-.28l11.4-12.7M814.16,590.26c-1-.27-.76-1.9.09-2.53s2-.86,2.66-1.68a6.21,6.21,0,0,0-2.88-2.28,76.44,76.44,0,0,0-10,9.22c-3.61,4-6.9,8.6-7.77,13.92s1.29,11.43,6.15,13.74a19.28,19.28,0,0,0,5.2,1.37,20.94,20.94,0,0,0,5.17.43,14.28,14.28,0,0,0,8.17-3.77,20.39,20.39,0,0,0,6.6-12.11c.12-.75-.3-1.88-1-1.54a5.75,5.75,0,0,1-3.3.89c-1.15-.18-2.18-1.43-1.68-2.47a7.65,7.65,0,0,0,.29-5.79,40.14,40.14,0,0,1-5.29,4.89,7.92,7.92,0,0,1-4.1,1.93c-1.52.1-3.22-.89-3.37-2.42a13,13,0,0,1,10.69-8.37c.74-.07.17-1.24-.5-1.55a30.84,30.84,0,0,0-5.18-1.88M979.6,662.55c-4.13-.12-7.28-4.52-11.4-4.35-2.11.09-4,1.37-5.65,2.63a261.47,261.47,0,0,0-20.59,17q22.32,2.74,44.84,3.57c.26,0,.64-.11.58-.37l-2.91-12.21c-.66-2.78-2-6.17-4.87-6.26m114.51,66.9c4.44.56,8.65-1.91,12.45-4.28,7.47-4.67,15.11-9.49,20.55-16.42,7.41-9.43,10-21.68,12.2-33.46q-7.21,7.94-14.42,15.86l-10.83,11.9c-7.44,8.19-15,16.51-20,26.4M955.33,611.63a14.76,14.76,0,0,0-9.88,2.38c-1.59,1.07-3.8.35-5.35-.8s-2.85-2.69-4.62-3.45A8.57,8.57,0,0,0,929,610c-6.89,2.77-10.63,11.57-7.84,18.44,1.21,3,3.8,5.7,7,5.88a10.69,10.69,0,0,0,3.17-.4,45,45,0,0,0,10.1-3.78c-1.26-2.12-1.94-5-.39-6.95a3.78,3.78,0,1,1,5.12,5.46c-.46.32.39.83.94.76a27.23,27.23,0,0,1,9.05.3c-1.49-1.75-1.6-4.34-1-6.56a42.43,42.43,0,0,1,2.77-6.3c.55-1.2,1-2.65.33-3.78a3.9,3.9,0,0,0-3-1.48M763.07,505.23c-.73-.54-1.73.07-2.42.66-11.58,10-23.52,20.36-29.78,34.28,3.34-3.09,8.46-2.71,13-3.29a51.78,51.78,0,0,0,10.33-2.8c15.87-5.54,31.5-11.73,47.13-17.92-3.72-.78-7.49.79-11,2.32l-19.61,8.68c-3.16,1.39-7-1-8.28-4.24s-.88-6.8-.41-10.22q.51-3.74,1-7.47m220.56-168.6a8,8,0,0,0-3.49-.72c-9-.49-18.37-.9-26.55,2.85l-13,6c-3.36,1.53-7,3.41-8.27,6.89a1.44,1.44,0,0,0-.07,1,1.53,1.53,0,0,0,1.18.71c4.88,1.08,10,.39,14.86-.68a94.34,94.34,0,0,0,35.35-16m53.07,63.05a86.24,86.24,0,0,1,16.7-.57,312.9,312.9,0,0,1,35.63,3.45c-12.15-5.53-25.73-6.93-39-7.87-8-.56-16-1-23.86.37s-15.61,4.61-21.05,10.44c10.73.88,21-4.17,31.62-5.82m-61.87-77.47a4.76,4.76,0,0,0-3-1.11,96.31,96.31,0,0,0-27.7.49,2.84,2.84,0,0,0-1.34.47,2.55,2.55,0,0,0-.72,1.93,10.54,10.54,0,0,0,.44,3.48c-.34,2.27-.67,4.54-1,6.81,0,.23,0,.51.14.65a.68.68,0,0,0,.47.06l16.49-1.92a41.2,41.2,0,0,0,10.07-2c.41-.16.89-.65.56-.94A.73.73,0,0,0,969,330l-7.06-1.35a36.67,36.67,0,0,0-6.25-.84,43.32,43.32,0,0,0-8.39,1,4.14,4.14,0,0,1-2,0,1.45,1.45,0,0,1-1-1.58,1.93,1.93,0,0,1,1.27-1.12c3.08-1.25,6.54-.86,9.86-.94a69,69,0,0,0,10.61-1.35l8.9-1.61m-74.13,373c-1.33,1.45,0,4,1.92,4.51s3.87-.36,5.62-1.26A161.35,161.35,0,0,0,924,688.68c4.27-2.87,8.55-5.76,12.55-9a77.59,77.59,0,0,0-13.11,2.23c-1.76.45-3.5,1-5.2,1.59a44.73,44.73,0,0,0-17.51,11.69m246.12-46.46a1.78,1.78,0,0,0,2.6-.83,865.62,865.62,0,0,1,21.88-97.14c-.35-.93-1.67.15-1.93,1.1l-12.76,46.91c-.94,3.46-1.89,6.92-2.76,10.4a283.75,283.75,0,0,0-7,39.56m-174.55-25-7.35,8.11c-1,1.1-2.63,2.28-3.8,1.36a1.21,1.21,0,0,0-1.66.22,28.7,28.7,0,0,1,8.42,9.77,9.86,9.86,0,0,0,8.06,5.15c1.06,0,2.52-.64,2.11-1.62a49.72,49.72,0,0,1-2.43-7,32.33,32.33,0,0,1-.91-10.23q.38-5.29.76-10.59a13,13,0,0,1-3.2,4.81m-32-299c0-.89-.3-2-1.18-2.15a2,2,0,0,0-.88.12c-3.07.91-6.15,1.81-9.12,3-1.56.62-3.09,1.31-4.62,2L918,330.56a2.09,2.09,0,0,0-1,.72.74.74,0,0,0,.27,1.06,67.16,67.16,0,0,0,14.78,3.17c.39,0,.87,0,1.11-.28a4.29,4.29,0,0,0,5.59-1.4,7.62,7.62,0,0,0,.78-2.14,26.74,26.74,0,0,0,.69-7m215.69,140.57c.73-.9.07-2.24-.71-3.1a13.14,13.14,0,0,0-8.43-4.27,48.53,48.53,0,0,1,10.65,17.29,80,80,0,0,0,11,20.63,3.24,3.24,0,0,0,.17-2.86q-2.34-9.26-4.69-18.51c-.45-1.75-1-3.68-2.55-4.64-1.17-.74-2.66-.74-3.93-1.28s-2.34-2.17-1.48-3.26M916,371.85a2.15,2.15,0,0,0-2.74,1.81,5.39,5.39,0,0,0-.45,2,3.59,3.59,0,0,0,2.23,2.91,9.25,9.25,0,0,0,3.77.6,58.06,58.06,0,0,0,11.54-1.08,65.59,65.59,0,0,0,7.31-1.82.82.82,0,0,0,.37-.19c.36-.41-.3-.93-.82-1.06-2.32-.59-4.67-1-7-1.42q-7.07-1.17-14.19-1.78m-74.75,202a.7.7,0,0,0,.11-.8,8.24,8.24,0,0,1-2.19.7,157.12,157.12,0,0,0-19.47,5.68,2.22,2.22,0,0,0-1.12,2.62,6.64,6.64,0,0,0,1.67,2.6,2.36,2.36,0,0,0,1.14.82,2.18,2.18,0,0,0,1-.12,41.88,41.88,0,0,0,18.82-11.5m-9.8,11.78a6.15,6.15,0,0,0-3.07,2.77l-1.47,2.12a2.88,2.88,0,0,0-.63,1.46,2.73,2.73,0,0,0,.52,1.41c1.15,1.91,2.29,3.82,3.44,5.72a2.34,2.34,0,0,0,1.31,1.26c1,.25,1.83-.85,2.82-1.18.65-.22,1.43-.12,2-.55a2.43,2.43,0,0,0,.6-2l-.05-3.14a12.13,12.13,0,0,0-.93-5.42c-.84-1.65-2.73-2.91-4.51-2.42M852.8,579a24.23,24.23,0,0,0,9.52-1,48,48,0,0,0-10.74-4.45,10.84,10.84,0,0,0-5.43-.46c-2.1.5-3.77,2-5.28,3.59a2,2,0,0,0-.61.94c-.07.37.16.83.54.84.56,0,.9-.85,1.45-.73A69.3,69.3,0,0,0,852.8,579M1000,330.53c1.48,0,2.09-2.15,1.27-3.37s-2.38-1.68-3.81-2l-3.42-.89a13,13,0,0,0-4.23-.61,4.45,4.45,0,0,0-3.6,2c1-.2,1.87.77,2.29,1.72A5.75,5.75,0,0,0,990,330a4.28,4.28,0,0,0,2.43.51l7.53,0m-79,5c-2.35-.43-4.51-2.21-6.86-1.78a7.64,7.64,0,0,0-3.37,1.93l-5.24,4.33c.17.43.79.4,1.24.3,6.2-1.44,12.48-2.57,18.79-3.41-1-1.29-3-1.08-4.56-1.37m18.54,3.12a17.8,17.8,0,0,1-2.61,5.45c.71.78,2,0,2.8-.6a20,20,0,0,1,3-1.87,53.54,53.54,0,0,1,14.87-5.24c-.22-.78-1.28-.85-2.08-.76l-13.24,1.5c-1.11.13-2.45.44-2.76,1.52m24.73-11.95,6.28,1.78a8.2,8.2,0,0,0,4.34.41,8.06,8.06,0,0,0,1.69-.77l5.75-3.16a1,1,0,0,0,.51-.47c.23-.64-.77-.93-1.44-.84l-14.58,1.93a3.45,3.45,0,0,0-2.55,1.12m25,8.39c.37-.73,1.4-.75,2.22-.65,3,.36,6,.8,9.05,1.31.92.16,1.23-1.19,1.14-2.12a1.39,1.39,0,0,0-.22-.72,1.3,1.3,0,0,0-.9-.36l-5.9-.77a10.06,10.06,0,0,0-3.71,0,3.45,3.45,0,0,0-2.65,2.35l1,1M892.85,530.71c.5.49,1.33.26,2,0a46.48,46.48,0,0,0,6.85-3.31,45.4,45.4,0,0,0,6.5-5.33c-.44-.7-1.51-.22-2.17.28a25.58,25.58,0,0,1-8.31,4.17c-2.08.6-3.07,3-4.85,4.2m-81,72.27c1.1-.94,2.89-.79,3.91-1.83l5.16-5.26a8.76,8.76,0,0,0-9.84,6.17l.77.92m332.62,63.36a104.28,104.28,0,0,0,4.77-14,1.5,1.5,0,0,0,.07-.69c-.19-.87-1.55-.67-2.15,0a6.77,6.77,0,0,0-1.33,3.32q-1.08,5.19-2.15,10.38l.79,1M976.94,330.84a.77.77,0,0,0,.54.1l8.09-.54c1.33-.09,1.73-2.16.76-3.07a3.38,3.38,0,0,0-3.76-.19l-5.07,2.57c-.45.23-1,.81-.56,1.13M1119.37,417c-.07-.26-.33-.41-.56-.54-4.76-2.78-8.73-7.13-14.06-8.54a.59.59,0,0,0-.37,0c-.38.16-.05.72.29.95l12.79,8.49a2.12,2.12,0,0,0,1.17.48c.43,0,.87-.42.74-.83M972.56,333.92l5.44-.37,3-.2a8.05,8.05,0,0,1,1.77,0,11.71,11.71,0,0,0,2.57.56c.88-.05,1.78-1,1.31-1.75-.35-.53-1.11-.54-1.74-.48q-7.7.66-15.37,1.65l1,1.06a4.65,4.65,0,0,1,2.09-.48m41.78,157.43a3.89,3.89,0,0,0,0,2.41c.42,1,.38,2.09.76,3.08s1.58,1.83,2.47,1.26c-1.83-1.11-1.64-3.78-1.15-5.86s.93-4.65-.69-6c-.53,1.69-1,3.41-1.38,5.14M823.89,603.47a1.92,1.92,0,0,0,2.63-1.2,4.44,4.44,0,0,0-.48-3.21c-.51-1.08,0-2.33,0-3.51a1.81,1.81,0,0,0-.64-1.62c-.51-.33-1.39,0-1.32.62a33.73,33.73,0,0,1-.22,8.92M944.77,623.8a1.18,1.18,0,0,0-.72,0,2.7,2.7,0,0,0-1.92,2.25c-.16,1.37,1.38,2.83,2.56,2.12.92-.55.92-1.86.81-2.93,0-.57-.19-1.26-.73-1.45m105.52-170.41a2,2,0,0,0-.62.61,1,1,0,0,0-.06.87,13.23,13.23,0,0,0,6-3.67,13.53,13.53,0,0,0-5.27,2.19m-230,136.87c-.08.55.49,1,.92,1.3a4,4,0,0,1,1.31,2.08,1.33,1.33,0,0,0,1-1.46,3.25,3.25,0,0,0-.86-1.7,2.35,2.35,0,0,0-1.18-.87.94.94,0,0,0-1.16.65M874.43,285.2c-.39-.2-.86.22-.89.66a2,2,0,0,0,.48,1.19l2,3a16.62,16.62,0,0,0-1.24-4.31,1,1,0,0,0-.39-.51m158.71,116.59a2,2,0,0,0-1.69.3,4.47,4.47,0,0,0,4.84-.64,2.25,2.25,0,0,0-2.9.49M826.53,587.7l2.39-2.39a2,2,0,0,0-2.39,2.39m-9.39-4.65a.85.85,0,0,0-1.38-.45,2.72,2.72,0,0,0,.44,1.28.94.94,0,0,0,1.21.3c.38-.25.27-1-.19-1M828.91,600l-1-1c-.38.33-.23,1,0,1.42a2.19,2.19,0,0,0,.68,1.06.78.78,0,0,0,1.12-.15,1.24,1.24,0,0,1-.75-1.32m-5-11c.66.36,1.31-.93.64-1.26s-1.31.95-.65,1.29m-7.33-1.31a.84.84,0,0,0,0,1.33l1-1-1-.42m353.81-41.14c-.29,0-.3.54,0,.57s.28-.56,0-.57Z"/></g></svg>