<svg id="Layer_1" data-name="Layer 1" xmlns="http://www.w3.org/2000/svg" viewBox="0 0 1920 1080"><path d="M442.45,612.6A39.85,39.85,0,0,1,405,589l7.8-8.4a39.48,39.48,0,0,0,12.5,15.25,29,29,0,0,0,17.1,5.45,25.71,25.71,0,0,0,11.55-2.6,20.32,20.32,0,0,0,11.55-19q0-6.11-2.95-9.6a23.82,23.82,0,0,0-8.6-6.05q-5.64-2.55-14-5.75a120.5,120.5,0,0,1-12.6-5.9,31.81,31.81,0,0,1-10.05-8.35q-3.94-5.06-3.95-12.85a24.31,24.31,0,0,1,4.2-14.05,28.78,28.78,0,0,1,11.6-9.7,38.36,38.36,0,0,1,16.8-3.55A36.14,36.14,0,0,1,462,507.6a43.65,43.65,0,0,1,13.55,10.5l-6.7,8.5q-9.19-12.11-22.9-12.1-8.4,0-13.65,4.4a14.29,14.29,0,0,0-5.25,11.5,11.72,11.72,0,0,0,3.3,8.5,27.68,27.68,0,0,0,8.65,5.8q5.36,2.4,11.55,4.8a154.62,154.62,0,0,1,15.65,6.8A27.77,27.77,0,0,1,476.55,565q3.7,5.25,3.7,14.25a32.3,32.3,0,0,1-4.8,17.8,31.4,31.4,0,0,1-13.35,11.55A45.39,45.39,0,0,1,442.45,612.6Z"/><path d="M563.85,612.6A60,60,0,0,1,535,605.7a52.5,52.5,0,0,1-20.35-19.2q-7.5-12.3-7.5-28.3t7.5-28.35A52.59,52.59,0,0,1,535,510.7a63.76,63.76,0,0,1,57.7,0,52.52,52.52,0,0,1,20.35,19.15q7.5,12.25,7.5,28.35t-7.5,28.3a52.43,52.43,0,0,1-20.35,19.2A60,60,0,0,1,563.85,612.6Zm0-13a42.83,42.83,0,0,0,21.4-5.3,38.78,38.78,0,0,0,14.8-14.65,45.3,45.3,0,0,0,0-42.9,38.78,38.78,0,0,0-14.8-14.65,45.85,45.85,0,0,0-42.8,0,38.85,38.85,0,0,0-14.8,14.65,41.9,41.9,0,0,0-5.4,21.35,42.38,42.38,0,0,0,5.4,21.5,38.7,38.7,0,0,0,14.8,14.7A42.85,42.85,0,0,0,563.85,599.6Z"/><path d="M655.35,609.4V507H670v14a39.61,39.61,0,0,1,33.6-17.2q12.6,0,22,5.8a30.21,30.21,0,0,1,13,15.8,47.57,47.57,0,0,1,15-15.7q9.15-5.9,21.75-5.9a41.14,41.14,0,0,1,19.4,4.45,32.32,32.32,0,0,1,13.35,13q4.86,8.55,4.85,20.85v67.3h-14.6V546.2q0-14-7.3-22.2t-19.5-8.2a31.26,31.26,0,0,0-15.2,3.7,30.49,30.49,0,0,0-10.8,9.55,21.15,21.15,0,0,0-4,12.05v68.3h-14.6V544.7q0-13.31-7.25-21.1t-19.15-7.8a33.23,33.23,0,0,0-15.35,3.55,30.85,30.85,0,0,0-11.05,9.15A19.29,19.29,0,0,0,670,540v69.4Z"/><path d="M902.25,612.6a57.76,57.76,0,0,1-28.75-7.1,52.19,52.19,0,0,1-19.85-19.35,53.35,53.35,0,0,1-7.2-27.55,54.69,54.69,0,0,1,15.7-38.9,53.56,53.56,0,0,1,17.2-11.7,52.48,52.48,0,0,1,20.9-4.2,54.36,54.36,0,0,1,27,6.65,49.87,49.87,0,0,1,18.8,18.35q6.95,11.7,7.35,27c0,.8,0,1.45-.05,2a16.86,16.86,0,0,1-.25,1.85H861a41.09,41.09,0,0,0,5.4,21.2,38.69,38.69,0,0,0,14.85,14.45,47.25,47.25,0,0,0,42.5.4,42.21,42.21,0,0,0,15.45-13.95l10.8,5.8A50.33,50.33,0,0,1,930.1,606,58.92,58.92,0,0,1,902.25,612.6Zm-40.5-64h77.1a36.4,36.4,0,0,0-6.7-17A38.18,38.18,0,0,0,918.5,520.1a39.22,39.22,0,0,0-18-4.2,40.52,40.52,0,0,0-18.4,4.15,37.26,37.26,0,0,0-13.65,11.5A36.74,36.74,0,0,0,861.75,548.6Z"/><path d="M1012.25,612.6q-11.5,0-17.85-7.75T988.05,583V518h-10.4V507h10.4V468.7h14.6V507h25.5v11h-25.5v64.2q0,8.5,3.3,13a11,11,0,0,0,9.4,4.5,17.13,17.13,0,0,0,10.4-3.3l3.7,11.6a30.13,30.13,0,0,1-8,3.35A35.09,35.09,0,0,1,1012.25,612.6Z"/><path d="M1068.55,486.5a9,9,0,0,1-4.75-1.3,9.81,9.81,0,0,1-3.45-3.5,9.25,9.25,0,0,1-1.3-4.8,9,9,0,0,1,1.3-4.75,10,10,0,0,1,3.45-3.45,9,9,0,0,1,4.75-1.3,9.17,9.17,0,0,1,4.85,1.3,10.29,10.29,0,0,1,3.45,3.4,8.82,8.82,0,0,1,1.3,4.7,9.52,9.52,0,0,1-1.3,4.9,10,10,0,0,1-3.45,3.5A9.17,9.17,0,0,1,1068.55,486.5Zm-7.3,122.9V507h14.6V609.4Z"/><path d="M1119.05,609.4V507h14.6v14a40.69,40.69,0,0,1,14.6-12.85,41.1,41.1,0,0,1,19-4.35q12.6,0,22,5.8a30.25,30.25,0,0,1,13,15.8,47.47,47.47,0,0,1,15-15.7q9.15-5.9,21.75-5.9a41.19,41.19,0,0,1,19.4,4.45,32.44,32.44,0,0,1,13.35,13q4.85,8.55,4.85,20.85v67.3H1262V546.2q0-14-7.3-22.2t-19.5-8.2a31.23,31.23,0,0,0-15.2,3.7,30.41,30.41,0,0,0-10.8,9.55,21.08,21.08,0,0,0-4,12.05v68.3h-14.6V544.7q0-13.31-7.25-21.1t-19.15-7.8a33.2,33.2,0,0,0-15.35,3.55,30.76,30.76,0,0,0-11,9.15,19.22,19.22,0,0,0-4.1,11.5v69.4Z"/><path d="M1366,612.6a57.73,57.73,0,0,1-28.75-7.1,52.12,52.12,0,0,1-19.85-19.35,53.35,53.35,0,0,1-7.2-27.55,55.07,55.07,0,0,1,4.15-21.45,54.22,54.22,0,0,1,11.55-17.45,53.45,53.45,0,0,1,17.2-11.7,52.48,52.48,0,0,1,20.9-4.2,54.36,54.36,0,0,1,27,6.65,49.94,49.94,0,0,1,18.8,18.35q6.95,11.7,7.35,27c0,.8,0,1.45-.05,2s-.12,1.12-.25,1.85h-92.2a41.09,41.09,0,0,0,5.4,21.2,38.69,38.69,0,0,0,14.85,14.45,43.81,43.81,0,0,0,21.65,5.25,44.27,44.27,0,0,0,20.85-4.85,42.37,42.37,0,0,0,15.45-13.95l10.8,5.8A50.39,50.39,0,0,1,1393.8,606,58.92,58.92,0,0,1,1366,612.6Zm-40.5-64h77.1a36.4,36.4,0,0,0-6.7-17,38.18,38.18,0,0,0-13.65-11.55,39.22,39.22,0,0,0-18-4.2,40.49,40.49,0,0,0-18.4,4.15,37.1,37.1,0,0,0-13.65,11.5A36.64,36.64,0,0,0,1325.45,548.6Z"/><path d="M1477.25,612.6a39.85,39.85,0,0,1-37.5-23.6l7.8-8.4a39.39,39.39,0,0,0,12.5,15.25,28.93,28.93,0,0,0,17.1,5.45,25.71,25.71,0,0,0,11.55-2.6,20.32,20.32,0,0,0,11.55-19q0-6.11-3-9.6a24,24,0,0,0-8.6-6.05q-5.65-2.55-14-5.75a118.63,118.63,0,0,1-12.6-5.9,31.59,31.59,0,0,1-10-8.35q-4-5.06-4-12.85a24.31,24.31,0,0,1,4.2-14.05,28.72,28.72,0,0,1,11.6-9.7,38.3,38.3,0,0,1,16.8-3.55,36.2,36.2,0,0,1,16.15,3.7,43.76,43.76,0,0,1,13.55,10.5l-6.7,8.5q-9.21-12.11-22.9-12.1-8.4,0-13.65,4.4a14.29,14.29,0,0,0-5.25,11.5,11.72,11.72,0,0,0,3.3,8.5,27.57,27.57,0,0,0,8.65,5.8q5.34,2.4,11.55,4.8a155.62,155.62,0,0,1,15.65,6.8,27.93,27.93,0,0,1,10.35,8.65q3.69,5.25,3.7,14.25a32.3,32.3,0,0,1-4.8,17.8,31.4,31.4,0,0,1-13.35,11.55A45.39,45.39,0,0,1,1477.25,612.6Z"/></svg>