<?xml version="1.0" encoding="utf-8"?>
<!-- Generator: Adobe Illustrator 24.2.3, SVG Export Plug-In . SVG Version: 6.00 Build 0)  -->
<svg version="1.1" id="Layer_1" xmlns="http://www.w3.org/2000/svg" xmlns:xlink="http://www.w3.org/1999/xlink" x="0px" y="0px"
	 viewBox="0 0 1920 1080" style="enable-background:new 0 0 1920 1080;" xml:space="preserve">
<g>
	<path d="M442.5,612.6c-16.1,0.4-30.9-8.9-37.5-23.6l7.8-8.4c2.8,6.1,7.1,11.3,12.5,15.2c5,3.6,11,5.5,17.1,5.5c4,0,8-0.8,11.5-2.6
		c7.3-3.5,11.8-10.9,11.5-19c0-4.1-1-7.3-3-9.6c-2.4-2.6-5.3-4.7-8.6-6c-3.8-1.7-8.4-3.6-14-5.8c-4.3-1.7-8.5-3.7-12.6-5.9
		c-3.9-2.1-7.3-4.9-10-8.3c-2.6-3.4-3.9-7.7-4-12.8c-0.1-5,1.4-9.9,4.2-14c2.9-4.2,6.9-7.6,11.6-9.7c5.3-2.4,11-3.7,16.8-3.5
		c5.6,0,11.1,1.2,16.1,3.7c5.2,2.6,9.8,6.1,13.5,10.5l-6.7,8.5c-6.1-8.1-13.8-12.1-22.9-12.1c-5.6,0-10.2,1.5-13.6,4.4
		c-3.4,2.8-5.4,7.1-5.2,11.5c-0.1,3.2,1.1,6.2,3.3,8.5c2.5,2.5,5.4,4.4,8.6,5.8c3.6,1.6,7.4,3.2,11.5,4.8c5.3,2,10.6,4.2,15.6,6.8
		c4.1,2,7.7,5,10.4,8.7c2.5,3.5,3.7,8.2,3.7,14.2c0.2,6.3-1.5,12.5-4.8,17.8c-3.3,5-7.9,9.1-13.4,11.5
		C455.9,611.4,449.2,612.7,442.5,612.6z"/>
	<path d="M563.8,612.6c-10,0.2-20-2.2-28.8-6.9c-8.4-4.4-15.4-11.1-20.3-19.2c-5-8.2-7.5-17.6-7.5-28.3c0-10.7,2.5-20.1,7.5-28.3
		c4.9-8.1,12-14.7,20.3-19.2c18.1-9.2,39.6-9.2,57.7,0c8.4,4.4,15.4,11,20.3,19.2c5,8.2,7.5,17.6,7.5,28.3c0,10.7-2.5,20.2-7.5,28.3
		c-4.9,8.1-12,14.8-20.3,19.2C583.8,610.4,573.9,612.8,563.8,612.6z M563.8,599.6c7.5,0.1,14.9-1.7,21.4-5.3
		c6.2-3.4,11.3-8.5,14.8-14.7c7.2-13.4,7.2-29.5,0-42.9c-3.5-6.1-8.6-11.2-14.8-14.7c-13.4-7.1-29.4-7.1-42.8,0
		c-6.2,3.4-11.3,8.5-14.8,14.7c-3.7,6.5-5.5,13.9-5.4,21.3c-0.1,7.5,1.7,14.9,5.4,21.5c3.5,6.2,8.6,11.2,14.8,14.7
		C549,597.9,556.4,599.7,563.8,599.6z"/>
	<path d="M655.3,609.4V507H670v14c7.6-11,20.2-17.5,33.6-17.2c8.4,0,15.7,1.9,22,5.8c6,3.6,10.6,9.2,13,15.8
		c3.7-6.3,8.9-11.7,15-15.7c6.1-3.9,13.4-5.9,21.8-5.9c6.7-0.1,13.4,1.4,19.4,4.5c5.6,2.9,10.3,7.5,13.3,13
		c3.2,5.7,4.9,12.6,4.8,20.8v67.3h-14.6v-63.2c0-9.3-2.4-16.7-7.3-22.2c-4.9-5.5-11.4-8.2-19.5-8.2c-5.3-0.1-10.5,1.2-15.2,3.7
		c-4.3,2.3-8,5.5-10.8,9.5c-2.5,3.5-3.9,7.7-4,12v68.3H727v-64.7c0-8.9-2.4-15.9-7.2-21.1c-4.8-5.2-11.2-7.8-19.2-7.8
		c-5.3-0.1-10.6,1.2-15.3,3.5c-4.4,2.1-8.1,5.3-11,9.2c-2.6,3.3-4.1,7.3-4.2,11.5v69.4H655.3z"/>
	<path d="M902.2,612.6c-10,0.2-19.9-2.3-28.8-7.1c-8.2-4.5-15.1-11.2-19.8-19.3c-4.9-8.4-7.3-17.9-7.2-27.5
		c-0.1-14.5,5.5-28.5,15.7-38.9c4.9-5,10.8-9,17.2-11.7c6.6-2.8,13.7-4.2,20.9-4.2c9.4-0.2,18.7,2.1,27,6.6
		c7.8,4.3,14.3,10.7,18.8,18.4c4.6,7.8,7.1,16.8,7.3,27c0,0.8,0,1.5,0,2c0,0.6-0.1,1.2-0.2,1.8H861c-0.1,7.4,1.7,14.8,5.4,21.2
		c3.5,6.1,8.7,11.1,14.8,14.5c13.3,6.9,29.1,7,42.5,0.4c6.2-3.3,11.5-8.1,15.5-14l10.8,5.8c-4.8,7.9-11.7,14.2-19.9,18.5
		C921.5,610.5,911.9,612.7,902.2,612.6z M861.8,548.6h77.1c-0.8-6.1-3.1-12-6.7-17c-3.6-4.9-8.3-8.8-13.6-11.5
		c-5.6-2.8-11.8-4.3-18-4.2c-6.4-0.1-12.7,1.3-18.4,4.2c-5.4,2.7-10.1,6.6-13.7,11.5C864.8,536.6,862.5,542.4,861.8,548.6z"/>
	<path d="M1012.2,612.6c-7.7,0-13.6-2.6-17.8-7.8c-4.2-5.2-6.3-12.5-6.4-21.8v-65h-10.4v-11H988v-38.3h14.6V507h25.5v11h-25.5v64.2
		c0,5.7,1.1,10,3.3,13c2.2,3,5.7,4.7,9.4,4.5c3.7,0.1,7.4-1.1,10.4-3.3l3.7,11.6c-2.5,1.5-5.2,2.6-8,3.3
		C1018.5,612.2,1015.4,612.6,1012.2,612.6z"/>
	<path d="M1068.6,486.5c-1.7,0-3.3-0.4-4.8-1.3c-1.4-0.9-2.6-2.1-3.4-3.5c-0.9-1.5-1.3-3.1-1.3-4.8c0-1.7,0.4-3.3,1.3-4.8
		c0.8-1.4,2-2.6,3.4-3.5c1.4-0.9,3.1-1.3,4.8-1.3c1.7,0,3.4,0.4,4.8,1.3c1.4,0.8,2.6,2,3.4,3.4c0.9,1.4,1.3,3,1.3,4.7
		c0,1.7-0.4,3.4-1.3,4.9c-0.8,1.4-2,2.6-3.4,3.5C1071.9,486.1,1070.3,486.5,1068.6,486.5z M1061.2,609.4V507h14.6v102.4H1061.2z"/>
	<path d="M1119.1,609.4V507h14.6v14c3.8-5.4,8.8-9.8,14.6-12.9c5.9-3,12.4-4.4,19-4.4c8.4,0,15.7,1.9,22,5.8c6,3.6,10.6,9.2,13,15.8
		c3.7-6.3,8.9-11.7,15-15.7c6.1-3.9,13.3-5.9,21.8-5.9c6.7-0.1,13.4,1.4,19.4,4.5c5.6,2.9,10.3,7.5,13.3,13
		c3.2,5.7,4.8,12.6,4.8,20.8v67.3H1262v-63.2c0-9.3-2.4-16.7-7.3-22.2s-11.4-8.2-19.5-8.2c-5.3-0.1-10.5,1.2-15.2,3.7
		c-4.3,2.3-8,5.5-10.8,9.5c-2.5,3.5-3.9,7.7-4,12v68.3h-14.6v-64.7c0-8.9-2.4-15.9-7.2-21.1c-4.8-5.2-11.2-7.8-19.2-7.8
		c-5.3-0.1-10.6,1.2-15.3,3.5c-4.3,2.1-8.1,5.3-11,9.2c-2.6,3.3-4,7.3-4.1,11.5v69.4L1119.1,609.4z"/>
	<path d="M1366,612.6c-10,0.2-19.9-2.3-28.8-7.1c-8.2-4.5-15.1-11.2-19.8-19.3c-4.9-8.4-7.3-17.9-7.2-27.5
		c-0.1-7.4,1.3-14.6,4.2-21.5c2.7-6.5,6.6-12.4,11.6-17.5c4.9-5,10.8-9,17.2-11.7c6.6-2.8,13.7-4.2,20.9-4.2
		c9.4-0.2,18.7,2.1,27,6.6c7.8,4.3,14.3,10.7,18.8,18.4c4.6,7.8,7.1,16.8,7.3,27c0,0.8,0,1.5-0.1,2s-0.1,1.1-0.2,1.8h-92.2
		c-0.1,7.4,1.7,14.8,5.4,21.2c3.5,6.1,8.7,11.1,14.8,14.5c6.6,3.6,14.1,5.4,21.7,5.2c7.2,0.1,14.4-1.6,20.8-4.8
		c6.2-3.3,11.5-8.1,15.4-14l10.8,5.8c-4.8,7.8-11.7,14.2-19.9,18.5C1385.2,610.4,1375.7,612.7,1366,612.6z M1325.5,548.6h77.1
		c-0.8-6.1-3.1-12-6.7-17c-3.6-4.9-8.2-8.8-13.7-11.5c-5.6-2.8-11.8-4.3-18-4.2c-6.4-0.1-12.7,1.3-18.4,4.2
		c-5.4,2.7-10.1,6.6-13.7,11.5C1328.5,536.5,1326.2,542.4,1325.5,548.6L1325.5,548.6z"/>
	<path d="M1477.2,612.6c-16.1,0.4-30.9-8.9-37.5-23.6l7.8-8.4c2.8,6.1,7.1,11.3,12.5,15.2c5,3.6,11,5.5,17.1,5.5c4,0,8-0.8,11.6-2.6
		c7.3-3.5,11.8-10.9,11.6-19c0-4.1-1-7.3-3-9.6c-2.4-2.6-5.3-4.7-8.6-6c-3.8-1.7-8.4-3.6-14-5.8c-4.3-1.7-8.5-3.7-12.6-5.9
		c-3.9-2.1-7.3-4.9-10-8.3c-2.7-3.4-4-7.7-4-12.8c-0.1-5,1.4-9.9,4.2-14c2.9-4.2,6.9-7.6,11.6-9.7c5.3-2.4,11-3.7,16.8-3.5
		c5.6,0,11.1,1.2,16.2,3.7c5.2,2.6,9.8,6.1,13.6,10.5l-6.7,8.5c-6.1-8.1-13.8-12.1-22.9-12.1c-5.6,0-10.2,1.5-13.7,4.4
		c-3.4,2.8-5.4,7.1-5.2,11.5c-0.1,3.2,1.1,6.2,3.3,8.5c2.5,2.5,5.4,4.4,8.7,5.8c3.6,1.6,7.4,3.2,11.6,4.8c5.3,2,10.6,4.2,15.7,6.8
		c4.1,2,7.7,5,10.3,8.7c2.5,3.5,3.7,8.2,3.7,14.2c0.2,6.3-1.5,12.5-4.8,17.8c-3.3,5-7.9,9.1-13.3,11.5
		C1490.7,611.3,1484,612.7,1477.2,612.6z"/>
</g>
</svg>
